<svg id="Layer" xmlns="http://www.w3.org/2000/svg" viewBox="0 0 640 80">
  <defs>
  <style>
  .blue{fill:none;stroke:rgb(194, 230, 255);stroke-miterlimit:10;stroke-width:3px;}
  .white{fill:none;stroke:#fff;stroke-miterlimit:10;stroke-width:3px;}
  </style>
  </defs>
  <path id="H" class="blue" d="M16.64,23s-.38-7,6.89-7c8,0,8,.1,8,.1V34h30V19.18a4.09,4.09,0,0,1,4-3.16h10V58s0,5.84-6.9,6l-6.89.19V44.84H31.48V59.78a4.58,4.58,0,0,1-5.08,4.4c-5-.09-9.81,0-9.81,0Z" style="filter: drop-shadow(rgba(0, 149, 255, 1) 0px 0px 5px)"/>
  <path id="A" class="blue" d="M100.45,19s2-3,3.19-3h16.72a5.32,5.32,0,0,1,3,3c.9,2.3,19.15,36.19,19.15,36.19a6,6,0,0,1,0,6.77c-2.36,3.64-11,2.2-11,2.2l-5-8.27-29,.13-5,7.85s-8.75,1.41-11.11-2,0-7,0-7Z" style="filter: drop-shadow(rgba(0, 149, 255, 1) 0px 0px 5px)"/>
  <polygon id="InnerA" class="blue" points="111.94 27.83 103.32 43.85 120.75 43.85 111.94 27.83" style="filter: drop-shadow(rgba(0, 149, 255, 1) 0px 0px 5px)"/>
  <path id="L" class="blue" d="M148.57,16V64.46h39.74s6-.47,6.13-5.64,0-6.8,0-6.8H163.51v-30s-.77-6-5.94-6Z" style="filter: drop-shadow(rgba(0, 149, 255, 1) 0px 0px 5px)"/>
  <path id="L2" class="blue" d="M200.09,16V64.46h39.73s6-.47,6.13-5.64,0-6.8,0-6.8H215v-30s-.76-6-5.93-6Z" style="filter: drop-shadow(rgba(0, 149, 255, 1) 0px 0px 5px)"/>
  <path id="S" class="white" d="M264.81,64.46h27.38c15.8,0,16.18-9.28,16.18-9.28V44c0-11.32-17.81-9.86-17.81-9.86H268.73s-3.35-.19-3.35-4.22,3.26-4,3.26-4h37.63S305.79,16,296.6,16H264.81s-14.46-.67-14.46,14.75c0,13.59,14.94,13.3,14.94,13.3l26,1a3.51,3.51,0,0,1,3.16,3.83,4,4,0,0,1-3.06,4.21L250.35,53S250.16,64.46,264.81,64.46Z" style="filter: drop-shadow(rgba(255, 255, 255, 0.5) 0px 0px 5px)"/>
  <polygon id="Y" class="white" points="346.38 62.84 346.38 46.28 372.71 16.02 355.38 16.02 339.49 35.17 323.6 16.02 306.65 16.02 332.6 46.47 332.6 62.84 346.38 62.84" style="filter: drop-shadow(rgba(255, 255, 255, 0.5) 0px 0px 5px)"/>
  <path id="S2" class="white" d="M384.54,64.13h27.38c15.8,0,16.18-9.28,16.18-9.28V43.65c0-11.32-17.81-9.86-17.81-9.86H388.46s-3.35-.19-3.35-4.21,3.26-4,3.26-4H426s-.47-9.86-9.67-9.86H384.54S370.08,15,370.08,30.44C370.08,44,385,43.75,385,43.75l26,1a3.51,3.51,0,0,1,3.16,3.83,4,4,0,0,1-3.07,4.22l-41.07-.1S369.89,64.13,384.54,64.13Z" style="filter: drop-shadow(rgba(255, 255, 255, 0.5) 0px 0px 5px)"/>
  <path id="T" class="white" d="M449.4,28V62.84h11s3-.22,3-3V28H477.3s4.21-.54,4.21-4.25V17H435.62a4.88,4.88,0,0,0-4.15,5.23v5.68Z" style="filter: drop-shadow(rgba(255, 255, 255, 0.5) 0px 0px 5px)"/>
  <path id="E" class="white" d="M503.4,51.93h36v7.94s-.47,3-2.87,3H489.81V19.18s0-2.2,3.06-2.2h44.72s2.68.09,2.68,3.92v7H503.5v7h33.7v9.86H503.5Z" style="filter: drop-shadow(rgba(255, 255, 255, 0.5) 0px 0px 5px)"/>
  <path id="M" class="white" d="M562.48,62.84H551.56a3.23,3.23,0,0,1-3.06-3.25V20.33s.19-3.35,3.26-3.35h17.61l16.57,28.15L602.88,17H620.5a2.93,2.93,0,0,1,2.78,3.16V59.78s-.1,3.06-3.07,3.06H609.39V30.67L590.44,62.84h-9.67l-18.2-32.17Z" style="filter: drop-shadow(rgba(255, 255, 255, 0.5) 0px 0px 5px)"/>
</svg>