<svg xmlns="http://www.w3.org/2000/svg" xmlns:xlink="http://www.w3.org/1999/xlink" viewBox="0 0 360 360"><defs><style>.cls-1{fill:#033;}.cls-2{fill:url(#Gradient_bez_nazwy_77);}.cls-3{fill:url(#Gradient_bez_nazwy_40);}.cls-4{fill:url(#Gradient_bez_nazwy_49);}.cls-5{fill:url(#Gradient_bez_nazwy_57);}.cls-6{fill:url(#Gradient_bez_nazwy_67);}.cls-7{fill:url(#Gradient_bez_nazwy_28);}.cls-8{fill:url(#Nowa_próbka_gradientu_1);}.cls-9{fill:#fff;}</style><linearGradient id="Gradient_bez_nazwy_77" x1="65.28" y1="213.26" x2="104.92" y2="144.59" gradientUnits="userSpaceOnUse"><stop offset="0" stop-color="aqua"/><stop offset="0.15" stop-color="#00d5d5"/><stop offset="0.37" stop-color="#009c9c"/><stop offset="0.57" stop-color="#006e6e"/><stop offset="0.75" stop-color="#004e4e"/><stop offset="0.9" stop-color="#003a3a"/><stop offset="1" stop-color="#033"/></linearGradient><linearGradient id="Gradient_bez_nazwy_40" x1="296.85" y1="218.92" x2="256.71" y2="149.39" gradientUnits="userSpaceOnUse"><stop offset="0" stop-color="aqua"/><stop offset="0.46" stop-color="#009393"/><stop offset="0.78" stop-color="#004e4e"/><stop offset="0.93" stop-color="#033"/></linearGradient><linearGradient id="Gradient_bez_nazwy_49" x1="241.95" y1="248.88" x2="194.72" y2="119.11" gradientUnits="userSpaceOnUse"><stop offset="0" stop-color="aqua"/><stop offset="0.01" stop-color="#00fafa"/><stop offset="0.22" stop-color="#00a6a6"/><stop offset="0.39" stop-color="#006868"/><stop offset="0.51" stop-color="#004242"/><stop offset="0.57" stop-color="#033"/></linearGradient><linearGradient id="Gradient_bez_nazwy_57" x1="184.67" y1="282.77" x2="184.67" y2="187.19" gradientUnits="userSpaceOnUse"><stop offset="0" stop-color="aqua"/><stop offset="0.01" stop-color="#00f9f9"/><stop offset="0.16" stop-color="#00bebe"/><stop offset="0.3" stop-color="#008c8c"/><stop offset="0.43" stop-color="#006565"/><stop offset="0.55" stop-color="#004a4a"/><stop offset="0.65" stop-color="#003939"/><stop offset="0.73" stop-color="#033"/></linearGradient><linearGradient id="Gradient_bez_nazwy_67" x1="112.63" y1="258.83" x2="146" y2="211.18" xlink:href="#Gradient_bez_nazwy_40"/><linearGradient id="Gradient_bez_nazwy_28" x1="261.06" y1="286.66" x2="233.33" y2="238.64" xlink:href="#Gradient_bez_nazwy_40"/><linearGradient id="Nowa_próbka_gradientu_1" x1="192.37" y1="286.66" x2="220.09" y2="238.64" gradientUnits="userSpaceOnUse"><stop offset="0" stop-color="aqua"/><stop offset="0.07" stop-color="#00eaea"/><stop offset="0.32" stop-color="#0aa"/><stop offset="0.55" stop-color="#077"/><stop offset="0.74" stop-color="#005252"/><stop offset="0.9" stop-color="#003b3b"/><stop offset="1" stop-color="#033"/></linearGradient></defs><g id="Warstwa_12" data-name="Warstwa 12"><circle class="cls-1" cx="180" cy="180" r="180"/><polygon class="cls-2" points="115.97 242.52 54.23 206.59 54.23 115.32 115.97 151.25 115.97 242.52"/><polygon class="cls-3" points="305.77 213.78 247.55 246.84 247.55 154.85 305.77 121.07 305.77 213.78"/><polygon class="cls-4" points="189.34 213.78 247.55 246.84 247.55 154.85 189.34 121.07 189.34 213.78"/><polygon class="cls-5" points="212.34 251.15 157 282.77 157 218.88 212.34 187.19 212.34 251.15"/><polygon class="cls-6" points="101.67 251.15 157 282.77 157 218.88 101.67 187.19 101.67 251.15"/><polygon class="cls-7" points="267.68 282.77 226.71 306.49 226.71 242.52 267.68 218.81 267.68 282.77"/><polygon class="cls-8" points="185.75 282.77 226.71 306.49 226.71 242.52 185.75 218.81 185.75 282.77"/><polygon class="cls-9" points="236.77 81.54 188.62 109.57 140.47 81.54 188.62 53.52 236.77 81.54"/><polygon class="cls-9" points="305.77 121.07 247.55 154.85 189.34 121.07 247.55 87.29 305.77 121.07"/><polygon class="cls-9" points="177.84 115.32 116.04 151.25 54.23 115.32 116.04 79.39 177.84 115.32"/><polygon class="cls-9" points="212.34 187.19 157 218.88 101.67 187.19 157 154.85 212.34 187.19"/><polygon class="cls-9" points="267.68 218.81 226.71 242.52 185.75 218.81 226.71 195.09 267.68 218.81"/></g></svg>