<svg xmlns="http://www.w3.org/2000/svg" width="386.208" height="116.819" viewBox="0 0 386.208 116.819"><div xmlns="" id="in-page-channel-node-id" data-channel-name="in_page_channel_2dDLZz"/>
  <g id="Group_5525" data-name="Group 5525" transform="translate(-446 -342)">
    <path id="Path_5731" data-name="Path 5731" d="M475.862,421.26l36.046-55.985,18.818.01,14.979-23.275L571.547,342v79.27H545.673l.032-32.278L524.961,421.26h-9.5l.052-32.268-20.8,32.268Z" fill="#00256d" fill-rule="evenodd"/>
    <path id="Path_5732" data-name="Path 5732" d="M475.862,421.26l36.046-55.985,18.818.01,14.979-23.275L571.547,342v79.27H545.673l.032-32.278L524.961,421.26h-9.5l.052-32.268-20.8,32.268Z" fill="none" stroke="#00256d" stroke-miterlimit="22.926" stroke-width="0"/>
    <path id="Path_5733" data-name="Path 5733" d="M474.231,342.011h20.985l13.754,21.483-10.44,16.2-24.3-37.681Z" fill="#00256d" fill-rule="evenodd"/>
    <path id="Path_5734" data-name="Path 5734" d="M474.231,342.011h20.985l13.754,21.483-10.44,16.2-24.3-37.681Z" fill="none" stroke="#00256d" stroke-miterlimit="22.926" stroke-width="0"/>
    <path id="Path_5735" data-name="Path 5735" d="M470.173,342.011l11.549,17.875-12.79,19.556,14.9,23.17-11.48,17.694L446,379.453l24.172-37.442Z" fill="#00256d" fill-rule="evenodd"/>
    <path id="Path_5736" data-name="Path 5736" d="M470.173,342.011l11.549,17.875-12.79,19.556,14.9,23.17-11.48,17.694L446,379.453l24.172-37.442Z" fill="none" stroke="#00256d" stroke-miterlimit="22.926" stroke-width="0"/>
    <path id="Path_5737" data-name="Path 5737" d="M762.476,365.275l-5.106-11.812h10.586l1.83,8.121,5.833-8.121h9.123l-10.867,11.6,5.936,13.483H769.237l-2.194-10.182-7.089,10.182h-9.168l11.689-13.275Z" fill="#00256d" fill-rule="evenodd"/>
    <path id="Path_5738" data-name="Path 5738" d="M762.476,365.275l-5.106-11.812h10.586l1.83,8.121,5.833-8.121h9.123l-10.867,11.6,5.936,13.483H769.237l-2.194-10.182-7.089,10.182h-9.168l11.689-13.275Z" fill="none" stroke="#00256d" stroke-miterlimit="22.926" stroke-width="0"/>
    <path id="Path_5739" data-name="Path 5739" d="M682.689,353.1l9.108-.046-.782,3.7.715-.015.046,0,.045-.007.045-.01.042-.012.042-.015.036-.013.045-.022.061-.033.064-.048.063-.059.057-.074,0-.006.119-.095.228-.176.228-.175.231-.173.233-.171.236-.171.237-.168.241-.167.242-.165.245-.164.246-.163.249-.159.25-.159.254-.158.256-.156.253-.152.252-.141.259-.13.271-.121.285-.114.3-.105.31-.1.322-.087.335-.079.347-.07.36-.06.374-.051.386-.043.4-.033.411-.024.424-.014.437-.005.327,0,.32.011.314.019.3.026.3.033.29.04.283.048.275.054.266.062.26.069.252.075.245.083.237.09.231.1.223.1.215.109.2.117.2.124.192.132.184.14.178.147.171.156.165.165.157.172.151.18.145.19.138.2.132.206.126.216.119.226.114.234.365.837.65-.426.131-.093.135-.1.14-.114.146-.123.151-.135.158-.144.161-.153.161-.15.168-.15.179-.151.191-.155.2-.156.213-.159.223-.161.233-.163.156-.1.161-.1.167-.1.172-.1.177-.1.183-.1.187-.1.193-.1.2-.1.2-.1.209-.1.215-.094.219-.092.224-.092.23-.09.233-.089.233-.083.24-.077.245-.073.252-.068.258-.062.265-.056.273-.052.278-.047.284-.04.292-.036.3-.03.306-.025.311-.019.319-.014.325-.008.33,0,.473.008.455.025.435.041.418.057.4.074.381.088.363.1.346.119.327.135.311.15.294.164.277.179.26.194.245.209.23.225.216.242.206.259.194.267.181.276.167.283.154.291.14.3.127.307.115.314.1.324.088.333.074.341.061.348.048.359.034.368.021.376.007.387,0,.159,0,.166-.006.168-.008.169-.011.174-.013.175-.015.178-.017.18-.021.182-.022.183-.025.185-.026.184-.03.186-.032.187-.035.187-.036.19-3.185,16.281h-9.13l2.73-14.047.037-.18.037-.185.033-.184.032-.183.029-.18.026-.179.024-.178.022-.176.019-.174.017-.171.014-.167.011-.166.009-.162.007-.158,0-.157,0-.159-.012-.439-.036-.423-.06-.4-.086-.38-.113-.356-.14-.334-.171-.309-.2-.285-.229-.256-.257-.223-.281-.189-.3-.154-.326-.118-.343-.082-.358-.048-.369-.016-.423.009-.4.027-.384.045-.369.063-.353.083-.336.1-.32.123-.3.142-.286.164-.267.184-.248.2-.227.226-.206.245-.183.264-.161.282-.134.29-.115.286-.109.28-.1.284-.1.288-.1.293-.093.3-.089.3-.085.3-.081.308-.077.312-.075.317-.069.319-.066.325-.062.327-.059.332-.05.308-.009.034-.013.055-.012.052-.011.052-.011.05-.009.048-.009.048-.008.048-.008.05-.007.048-.005.05-.005.05,0,.051,0,.049,0,.044,0,.016-.013.065-.026.129-.013.065-.039.2-.013.066-.039.194-.013.066-.038.192-2.4,11.768h-9.486l3.132-14.865.037-.152.036-.163.032-.161.03-.16.026-.159c.206-1.442.246-3.116-.778-4.254l-.263-.222-.292-.189-.318-.156a5.275,5.275,0,0,0-4.073.146l-.263.149-.252.17-.238.189-.226.208-.212.226-.2.244a15.6,15.6,0,0,0-2.139,5.72l-.085.415-.079.414-2.761,12.6h-9.49l5.446-25.453Z" fill="#00256d" fill-rule="evenodd"/>
    <path id="Path_5740" data-name="Path 5740" d="M682.689,353.1l9.108-.046-.782,3.7.715-.015.046,0,.045-.007.045-.01.042-.012.042-.015.036-.013.045-.022.061-.033.064-.048.063-.059.057-.074,0-.006.119-.095.228-.176.228-.175.231-.173.233-.171.236-.171.237-.168.241-.167.242-.165.245-.164.246-.163.249-.159.25-.159.254-.158.256-.156.253-.152.252-.141.259-.13.271-.121.285-.114.3-.105.31-.1.322-.087.335-.079.347-.07.36-.06.374-.051.386-.043.4-.033.411-.024.424-.014.437-.005.327,0,.32.011.314.019.3.026.3.033.29.04.283.048.275.054.266.062.26.069.252.075.245.083.237.09.231.1.223.1.215.109.2.117.2.124.192.132.184.14.178.147.171.156.165.165.157.172.151.18.145.19.138.2.132.206.126.216.119.226.114.234.365.837.65-.426.131-.093.135-.1.14-.114.146-.123.151-.135.158-.144.161-.153.161-.15.168-.15.179-.151.191-.155.2-.156.213-.159.223-.161.233-.163.156-.1.161-.1.167-.1.172-.1.177-.1.183-.1.187-.1.193-.1.2-.1.2-.1.209-.1.215-.094.219-.092.224-.092.23-.09.233-.089.233-.083.24-.077.245-.073.252-.068.258-.062.265-.056.273-.052.278-.047.284-.04.292-.036.3-.03.306-.025.311-.019.319-.014.325-.008.33,0,.473.008.455.025.435.041.418.057.4.074.381.088.363.1.346.119.327.135.311.15.294.164.277.179.26.194.245.209.23.225.216.242.206.259.194.267.181.276.167.283.154.291.14.3.127.307.115.314.1.324.088.333.074.341.061.348.048.359.034.368.021.376.007.387,0,.159,0,.166-.006.168-.008.169-.011.174-.013.175-.015.178-.017.18-.021.182-.022.183-.025.185-.026.184-.03.186-.032.187-.035.187-.036.19-3.185,16.281h-9.13l2.73-14.047.037-.18.037-.185.033-.184.032-.183.029-.18.026-.179.024-.178.022-.176.019-.174.017-.171.014-.167.011-.166.009-.162.007-.158,0-.157,0-.159-.012-.439-.036-.423-.06-.4-.086-.38-.113-.356-.14-.334-.171-.309-.2-.285-.229-.256-.257-.223-.281-.189-.3-.154-.326-.118-.343-.082-.358-.048-.369-.016-.423.009-.4.027-.384.045-.369.063-.353.083-.336.1-.32.123-.3.142-.286.164-.267.184-.248.2-.227.226-.206.245-.183.264-.161.282-.134.29-.115.286-.109.28-.1.284-.1.288-.1.293-.093.3-.089.3-.085.3-.081.308-.077.312-.075.317-.069.319-.066.325-.062.327-.059.332-.05.308-.009.034-.013.055-.012.052-.011.052-.011.05-.009.048-.009.048-.008.048-.008.05-.007.048-.005.05-.005.05,0,.051,0,.049,0,.044,0,.016-.013.065-.026.129-.013.065-.039.2-.013.066-.039.194-.013.066-.038.192-2.4,11.768h-9.486l3.132-14.865.037-.152.036-.163.032-.161.03-.16.026-.159c.206-1.442.246-3.116-.778-4.254l-.263-.222-.292-.189-.318-.156a5.275,5.275,0,0,0-4.073.146l-.263.149-.252.17-.238.189-.226.208-.212.226-.2.244a15.6,15.6,0,0,0-2.139,5.72l-.085.415-.079.414-2.761,12.6h-9.49l5.446-25.453Z" fill="none" stroke="#00256d" stroke-miterlimit="22.926" stroke-width="0"/>
    <path id="Path_5741" data-name="Path 5741" d="M670.527,347.505l1.345-5.464h9.117l-1.345,5.464Zm-6.563,31.044h0l5.482-25.917h9.135L673.5,378.549Z" fill="#00256d" fill-rule="evenodd"/>
    <path id="Path_5742" data-name="Path 5742" d="M670.527,347.505l1.345-5.464h9.117l-1.345,5.464Zm-6.563,31.044h0l5.482-25.917h9.135L673.5,378.549Z" fill="none" stroke="#00256d" stroke-miterlimit="22.926" stroke-width="0"/>
    <path id="Path_5743" data-name="Path 5743" d="M650.891,378.55l7.917-36.508h8.716l-7.513,36.508Z" fill="#00256d" fill-rule="evenodd"/>
    <path id="Path_5744" data-name="Path 5744" d="M650.891,378.55l7.917-36.508h8.716l-7.513,36.508Z" fill="none" stroke="#00256d" stroke-miterlimit="22.926" stroke-width="0"/>
    <path id="Path_5745" data-name="Path 5745" d="M587.451,378.549l7.564-36.508H612.1l.15.012.172.012.172.011.17.01.172.01.171.008.172.008.169.007.167.007.167.008.167.008.165.009.166.01.167.011.166.012.166.012.5.039.485.049.479.061.473.073.469.084.463.1.458.108.452.12.447.132.443.143.437.156.431.166.427.179.421.191.416.2.406.211.38.223.348.24.323.263.3.284.275.307.251.33.228.353.2.377.182.4.159.428.135.454.111.48.087.507.063.533.038.56.012.59,0,.5-.015.491-.024.482-.036.472-.044.463-.055.453-.064.444-.076.435-.083.425-.094.416-.1.406-.114.4-.123.388-.133.379-.142.369-.152.36-.162.352-.172.342-.18.333-.19.324-.2.316-.209.306-.219.3-.229.289-.239.28-.249.272-.257.263-.268.255-.278.246-.288.238-.3.229-.31.222-.319.217-.324.211-.328.2-.33.2-.335.19-.339.183-.341.176-.345.169-.35.162-.352.156-.356.148-.36.141-.363.135-.367.128-.37.121-.375.114-.378.107-.381.1-.385.094-.389.086-.393.08-.4.073-.4.065-.4.059-.408.053-.411.044-.415.039-.419.031-.423.024-.426.017-.431.011-.434,0-8.168-.055L597,378.549Zm13.774-19.376h6.734l.308-.012.3-.025.3-.039.3-.051.291-.065.287-.078.28-.091.277-.1.271-.117.266-.131.26-.143.255-.155.249-.169.244-.182.236-.193.225-.2.215-.2.205-.2.194-.206.186-.208.175-.212.165-.216.154-.218.144-.221.135-.225.123-.228.113-.232.1-.233.092-.238.08-.24.065-.221.023-.074.027-.089.025-.089.023-.088.021-.088.019-.088.017-.088.016-.088.014-.088.013-.09.01-.089.008-.09.007-.088,0-.089,0-.089v-.1l-.02-.388-.061-.39-.1-.378-.144-.363-.185-.347-.223-.33-.26-.312-.3-.293-.176-.148-.187-.137-.2-.125-.21-.115-.221-.1-.232-.094-.242-.084-.254-.074-.263-.065-.274-.055-.284-.047-.3-.038-.305-.029-.317-.021-.327-.013-.333,0-5.733-.056-2.316,10.478Z" fill="#00256d" fill-rule="evenodd"/>
    <path id="Path_5746" data-name="Path 5746" d="M587.451,378.549l7.564-36.508H612.1l.15.012.172.012.172.011.17.01.172.01.171.008.172.008.169.007.167.007.167.008.167.008.165.009.166.01.167.011.166.012.166.012.5.039.485.049.479.061.473.073.469.084.463.1.458.108.452.12.447.132.443.143.437.156.431.166.427.179.421.191.416.2.406.211.38.223.348.24.323.263.3.284.275.307.251.33.228.353.2.377.182.4.159.428.135.454.111.48.087.507.063.533.038.56.012.59,0,.5-.015.491-.024.482-.036.472-.044.463-.055.453-.064.444-.076.435-.083.425-.094.416-.1.406-.114.4-.123.388-.133.379-.142.369-.152.36-.162.352-.172.342-.18.333-.19.324-.2.316-.209.306-.219.3-.229.289-.239.28-.249.272-.257.263-.268.255-.278.246-.288.238-.3.229-.31.222-.319.217-.324.211-.328.2-.33.2-.335.19-.339.183-.341.176-.345.169-.35.162-.352.156-.356.148-.36.141-.363.135-.367.128-.37.121-.375.114-.378.107-.381.1-.385.094-.389.086-.393.08-.4.073-.4.065-.4.059-.408.053-.411.044-.415.039-.419.031-.423.024-.426.017-.431.011-.434,0-8.168-.055L597,378.549Zm13.774-19.376h6.734l.308-.012.3-.025.3-.039.3-.051.291-.065.287-.078.28-.091.277-.1.271-.117.266-.131.26-.143.255-.155.249-.169.244-.182.236-.193.225-.2.215-.2.205-.2.194-.206.186-.208.175-.212.165-.216.154-.218.144-.221.135-.225.123-.228.113-.232.1-.233.092-.238.08-.24.065-.221.023-.074.027-.089.025-.089.023-.088.021-.088.019-.088.017-.088.016-.088.014-.088.013-.09.01-.089.008-.09.007-.088,0-.089,0-.089v-.1l-.02-.388-.061-.39-.1-.378-.144-.363-.185-.347-.223-.33-.26-.312-.3-.293-.176-.148-.187-.137-.2-.125-.21-.115-.221-.1-.232-.094-.242-.084-.254-.074-.263-.065-.274-.055-.284-.047-.3-.038-.305-.029-.317-.021-.327-.013-.333,0-5.733-.056-2.316,10.478Z" fill="none" stroke="#00256d" stroke-miterlimit="22.926" stroke-width="0"/>
    <path id="Path_5747" data-name="Path 5747" d="M621.683,369.288l.02-.483.029-.481.039-.474.047-.467.056-.458.065-.452.074-.444.083-.437.092-.428.1-.422.109-.414.118-.407.127-.4.135-.392.145-.385.153-.378.161-.369.171-.363.179-.355.188-.348.2-.341.206-.335.214-.326.222-.321.233-.312.24-.306.249-.3.259-.292.267-.284.276-.279.285-.272.295-.265.3-.26.306-.255.308-.247.309-.241.311-.232.312-.227.315-.218.316-.213.317-.2.319-.2.322-.191.322-.184.325-.176.326-.171.327-.162.33-.156.331-.148.333-.142.335-.134.336-.128.339-.121.34-.114.342-.107.343-.1.345-.093.347-.086.35-.079.35-.072.354-.066.354-.058.356-.051.376-.047.151-.026.134-.021.134-.019.134-.016.134-.014.133-.012.135-.009.134-.008.139-.006.139-.005.141,0,.138,0,.14,0,.141,0,.14,0h.125l.43.021.431.027.422.033.413.037.4.043.4.048.386.052.376.058.368.064.358.068.35.073.34.078.331.084.322.088.313.093.3.1.294.1.286.108.276.113.267.117.258.122.25.127.241.131.231.136.222.14.214.146.206.15.2.153.188.158.179.164.17.167.162.171.318.367.3.373.276.379.255.385.234.392.214.4.193.406.173.411.152.419.132.426.112.434.092.44.07.449.052.457.031.464.01.477v.6l0,.059,0,.057,0,.055-.006.055-.007.053-.009.052-.02.105v.22l-.005.172-.007.178-.009.18-.013.185-.014.188-.018.192-.021.2-.023.2-.027.2-.029.209-.031.211-.035.216-.037.219-.04.223-.042.225-.047.226-.05.225-.055.226-.058.225-.064.227-.067.227-.072.228-.076.229-.08.228-.085.229-.089.23-.094.23-.1.232-.1.232-.107.232-.112.236-.212.443-.225.43-.242.427-.257.422-.275.417-.292.414-.308.409-.325.4-.342.4-.359.4-.377.393-.392.387-.411.384-.427.379-.443.376-.462.37-.232.176-.237.171-.243.166-.25.16-.255.155-.261.148-.268.144-.274.138-.279.133-.286.126-.293.122-.3.116-.3.111-.311.1-.317.1-.324.093-.329.089-.337.083-.341.077-.349.071-.355.066-.362.06-.366.055-.375.049-.38.043-.386.037-.393.032-.4.025-.4.021-.413.014-.417.008-.425,0-.449,0-.44-.008-.431-.014-.422-.021-.413-.025-.4-.032-.393-.037-.387-.044-.375-.048-.367-.055-.358-.06-.349-.065-.339-.071-.33-.077-.321-.082-.312-.089-.3-.092-.293-.1-.283-.1-.276-.11-.265-.114-.257-.12-.246-.124-.239-.13-.229-.135-.219-.14-.212-.145-.2-.15-.194-.155-.184-.159-.177-.165-.167-.17-.329-.364-.307-.374-.285-.385-.264-.4-.242-.407-.222-.42-.2-.43-.18-.443-.158-.455-.138-.466-.116-.48-.1-.492-.074-.5-.053-.518-.032-.531-.011-.549v-.035Zm9.1.009h0l0,.224.008.238.012.235.019.233.023.228.028.225.034.221.039.218.045.214.049.209.055.206.061.2.066.2.072.194.076.19.086.2.1.2.127.2.147.183.163.168.18.154.194.138.208.123.222.107.234.094.245.079.258.066.27.053.281.04.293.029.3.017.312.005h.422l.308,0,.315-.021.311-.041.3-.06.3-.078.292-.1.285-.118.278-.137.271-.155.262-.174.254-.192.246-.21.238-.227.228-.244.222-.261.211-.276.2-.279.191-.281.185-.285.177-.289.17-.291.163-.3.155-.3.149-.3.141-.305.134-.308.127-.312.121-.316.112-.318.106-.322.1-.325.09-.324.04-.148.038-.15.036-.148.034-.148.033-.148.031-.149.03-.148.027-.149.027-.147.024-.151.024-.148.02-.149.02-.148.017-.149.016-.149.014-.139.012-.1.012-.105.011-.1.01-.1.01-.1.009-.1.008-.1.007-.1.007-.1.005-.1.005-.1,0-.1,0-.1,0-.1,0-.095v-.154l0-.031,0-.032,0-.033,0-.035.005-.036.005-.041.007-.049.006-.052.005-.052.005-.052,0-.052,0-.051,0-.05v-.052l0-.275-.01-.27-.016-.264-.024-.258-.03-.253-.037-.247-.044-.241-.052-.236-.057-.227-.065-.224-.072-.218-.082-.212-.087-.2-.1-.2-.1-.193-.112-.191-.127-.188-.144-.18-.158-.169-.171-.155-.184-.142-.2-.129-.207-.115-.218-.1-.227-.089-.238-.075-.246-.063-.257-.052-.266-.039-.275-.028-.283-.017-.3-.006-.3.01-.3.027-.294.046-.29.064-.284.084-.278.1-.272.119-.267.137-.259.155-.253.172-.245.189-.239.205-.231.222-.226.238-.218.254-.21.268-.2.274-.191.273-.186.276-.18.281-.173.285-.167.286-.161.291-.155.294-.148.3-.142.3-.135.3-.129.308-.123.311-.117.313-.11.317-.1.313-.113.339-.108.342-.1.339-.092.337-.083.334-.075.331-.066.328-.059.324-.05.318-.043.3-.037.3-.03.287-.024.28-.017.27-.01.26,0,.222Z" fill="#00256d" fill-rule="evenodd"/>
    <path id="Path_5748" data-name="Path 5748" d="M621.683,369.288l.02-.483.029-.481.039-.474.047-.467.056-.458.065-.452.074-.444.083-.437.092-.428.1-.422.109-.414.118-.407.127-.4.135-.392.145-.385.153-.378.161-.369.171-.363.179-.355.188-.348.2-.341.206-.335.214-.326.222-.321.233-.312.24-.306.249-.3.259-.292.267-.284.276-.279.285-.272.295-.265.3-.26.306-.255.308-.247.309-.241.311-.232.312-.227.315-.218.316-.213.317-.2.319-.2.322-.191.322-.184.325-.176.326-.171.327-.162.33-.156.331-.148.333-.142.335-.134.336-.128.339-.121.34-.114.342-.107.343-.1.345-.093.347-.086.35-.079.35-.072.354-.066.354-.058.356-.051.376-.047.151-.026.134-.021.134-.019.134-.016.134-.014.133-.012.135-.009.134-.008.139-.006.139-.005.141,0,.138,0,.14,0,.141,0,.14,0h.125l.43.021.431.027.422.033.413.037.4.043.4.048.386.052.376.058.368.064.358.068.35.073.34.078.331.084.322.088.313.093.3.1.294.1.286.108.276.113.267.117.258.122.25.127.241.131.231.136.222.14.214.146.206.15.2.153.188.158.179.164.17.167.162.171.318.367.3.373.276.379.255.385.234.392.214.4.193.406.173.411.152.419.132.426.112.434.092.44.07.449.052.457.031.464.01.477v.6l0,.059,0,.057,0,.055-.006.055-.007.053-.009.052-.02.105v.22l-.005.172-.007.178-.009.18-.013.185-.014.188-.018.192-.021.2-.023.2-.027.2-.029.209-.031.211-.035.216-.037.219-.04.223-.042.225-.047.226-.05.225-.055.226-.058.225-.064.227-.067.227-.072.228-.076.229-.08.228-.085.229-.089.23-.094.23-.1.232-.1.232-.107.232-.112.236-.212.443-.225.43-.242.427-.257.422-.275.417-.292.414-.308.409-.325.4-.342.4-.359.4-.377.393-.392.387-.411.384-.427.379-.443.376-.462.37-.232.176-.237.171-.243.166-.25.16-.255.155-.261.148-.268.144-.274.138-.279.133-.286.126-.293.122-.3.116-.3.111-.311.1-.317.1-.324.093-.329.089-.337.083-.341.077-.349.071-.355.066-.362.06-.366.055-.375.049-.38.043-.386.037-.393.032-.4.025-.4.021-.413.014-.417.008-.425,0-.449,0-.44-.008-.431-.014-.422-.021-.413-.025-.4-.032-.393-.037-.387-.044-.375-.048-.367-.055-.358-.06-.349-.065-.339-.071-.33-.077-.321-.082-.312-.089-.3-.092-.293-.1-.283-.1-.276-.11-.265-.114-.257-.12-.246-.124-.239-.13-.229-.135-.219-.14-.212-.145-.2-.15-.194-.155-.184-.159-.177-.165-.167-.17-.329-.364-.307-.374-.285-.385-.264-.4-.242-.407-.222-.42-.2-.43-.18-.443-.158-.455-.138-.466-.116-.48-.1-.492-.074-.5-.053-.518-.032-.531-.011-.549v-.035Zm9.1.009h0l0,.224.008.238.012.235.019.233.023.228.028.225.034.221.039.218.045.214.049.209.055.206.061.2.066.2.072.194.076.19.086.2.1.2.127.2.147.183.163.168.18.154.194.138.208.123.222.107.234.094.245.079.258.066.27.053.281.04.293.029.3.017.312.005h.422l.308,0,.315-.021.311-.041.3-.06.3-.078.292-.1.285-.118.278-.137.271-.155.262-.174.254-.192.246-.21.238-.227.228-.244.222-.261.211-.276.2-.279.191-.281.185-.285.177-.289.17-.291.163-.3.155-.3.149-.3.141-.305.134-.308.127-.312.121-.316.112-.318.106-.322.1-.325.09-.324.04-.148.038-.15.036-.148.034-.148.033-.148.031-.149.03-.148.027-.149.027-.147.024-.151.024-.148.02-.149.02-.148.017-.149.016-.149.014-.139.012-.1.012-.105.011-.1.01-.1.01-.1.009-.1.008-.1.007-.1.007-.1.005-.1.005-.1,0-.1,0-.1,0-.1,0-.095v-.154l0-.031,0-.032,0-.033,0-.035.005-.036.005-.041.007-.049.006-.052.005-.052.005-.052,0-.052,0-.051,0-.05v-.052l0-.275-.01-.27-.016-.264-.024-.258-.03-.253-.037-.247-.044-.241-.052-.236-.057-.227-.065-.224-.072-.218-.082-.212-.087-.2-.1-.2-.1-.193-.112-.191-.127-.188-.144-.18-.158-.169-.171-.155-.184-.142-.2-.129-.207-.115-.218-.1-.227-.089-.238-.075-.246-.063-.257-.052-.266-.039-.275-.028-.283-.017-.3-.006-.3.01-.3.027-.294.046-.29.064-.284.084-.278.1-.272.119-.267.137-.259.155-.253.172-.245.189-.239.205-.231.222-.226.238-.218.254-.21.268-.2.274-.191.273-.186.276-.18.281-.173.285-.167.286-.161.291-.155.294-.148.3-.142.3-.135.3-.129.308-.123.311-.117.313-.11.317-.1.313-.113.339-.108.342-.1.339-.092.337-.083.334-.075.331-.066.328-.059.324-.05.318-.043.3-.037.3-.03.287-.024.28-.017.27-.01.26,0,.222Z" fill="none" stroke="#00256d" stroke-miterlimit="22.926" stroke-width="0"/>
    <path id="Path_5749" data-name="Path 5749" d="M727.58,366.364l.1-.509.108-.5.115-.486.121-.475.128-.463.135-.453.141-.441.148-.429.155-.418.161-.407.168-.4.174-.384.18-.373.188-.361.193-.351.2-.339.207-.328.212-.316.219-.306.226-.3.231-.283.239-.272.244-.262.251-.251.257-.24.264-.23.27-.218.278-.21.287-.2.29-.2.291-.2.293-.188.293-.182.295-.176.3-.17.3-.164.3-.158.3-.152.3-.146.3-.14.3-.135.3-.128.306-.122.306-.117.307-.11.309-.1.31-.1.312-.093.313-.087.314-.081.315-.074.316-.07.318-.063.319-.057.321-.051.321-.046.323-.039.325-.034.325-.028.346-.023.112-.014.095-.009.093-.008.094-.007.091-.005.091,0,.09,0h.84l.362,0,.354.006.347.011.342.015.335.02.33.023.323.028.317.032.31.037.3.041.3.045.292.048.285.054.279.058.274.062.267.065.259.07.254.074.249.078.241.082.235.086.23.09.223.094.216.1.211.1.2.1.2.11.192.113.186.118.181.121.174.125.164.126.322.272.3.287.277.306.257.323.236.341.217.361.2.381.177.4.156.421.136.44.116.462.1.482.074.5.053.525.033.545.011.569v.167l0,.173-.005.176-.006.176-.008.18-.01.182-.012.183-.012.186-.016.188-.016.19-.019.192-.021.194-.023.2-.024.2-.025.2-.028.2-.03.2-.032.206-.034.209-.036.21-.038.212-.041.215-.043.217-.044.218-.048.221-.05.223-.052.226-.054.227-.056.229-.058.231-.018.07-18.859-.052-.067.6-.014.112-.012.109-.013.107-.013.105-.013.1-.012.1-.013.1-.013.1-.011.106-.01.1-.008.1-.007.1,0,.1,0,.1v.1l0,.3.014.295.023.287.033.279.042.27.053.262.063.255.073.244.083.237.093.228.1.221.116.21.126.2.137.19.149.182.161.171.318.292.338.257.354.221.371.18.387.142.4.1.411.06.413.019h.1l.089,0,.09,0,.092-.006.091-.009.093-.009.093-.012.094-.014.094-.015.093-.018.093-.019.093-.021.091-.023.092-.025.091-.027.078-.025.309-.091.328-.123.322-.144.32-.167.315-.189.309-.21.3-.232.3-.254.294-.277.28-.3.264-.315.249-.334.234-.35.217-.37.2-.386.038-.082,8.327-.046-.134.393-.206.512-.231.495-.257.481-.283.465-.308.451-.333.436-.361.421-.386.408-.413.393-.439.378-.467.364-.493.35-.521.335-.55.323-.281.154-.286.15-.289.146-.291.14-.293.136-.294.131-.3.126-.3.12-.3.116-.3.111-.306.106-.31.1-.312.1-.313.091-.317.086-.318.081-.322.077-.323.072-.327.066-.328.062-.331.057-.333.052-.336.047-.338.042-.341.037-.343.032-.346.028-.347.022-.351.017-.353.012-.355.008-.358,0-.448,0-.437-.01-.425-.016-.416-.023-.4-.029-.394-.036-.382-.042-.37-.049-.362-.055-.349-.062-.338-.067-.327-.074-.316-.08-.305-.087-.295-.092-.283-.1-.273-.1-.26-.11-.251-.116-.239-.122-.229-.127-.217-.132-.206-.138-.2-.144-.186-.149-.176-.154-.166-.159-.155-.166-.147-.171-.135-.176-.127-.182-.119-.19-.235-.414-.22-.424-.205-.433-.19-.442-.175-.45-.159-.459-.146-.468-.129-.478-.115-.486-.1-.5-.084-.505-.069-.514-.054-.523-.038-.534-.023-.541-.008-.555v-.014l.07-.522.08-.543.088-.531.094-.521Zm9.576-3.505h10.151l.111-.472.014-.064.013-.067.012-.068.011-.068.01-.07.008-.071.008-.073.006-.071.006-.071.005-.072,0-.072,0-.071,0-.07v-.268l0-.06,0-.063,0-.062-.005-.064-.006-.064-.006-.062-.006-.054-.005-.051,0-.048,0-.049,0-.047,0-.046V360.4l-.076-.375-.088-.335-.109-.329-.129-.323-.15-.316-.171-.308-.189-.3-.214-.3-.249-.292-.282-.261-.311-.222-.337-.182-.361-.14-.38-.1-.4-.058-.41-.019-.266.006-.257.019-.254.031-.254.043-.251.057-.249.068-.246.081-.243.092-.242.105-.238.116-.235.129-.232.14-.229.151-.226.163-.223.175-.221.185-.217.2-.208.206-.2.215-.19.223-.183.231-.174.24-.165.247-.155.256-.148.264-.139.271-.129.28-.121.286-.112.295-.1.3-.094.31-.255.937Z" fill="#00256d" fill-rule="evenodd"/>
    <path id="Path_5750" data-name="Path 5750" d="M727.58,366.364l.1-.509.108-.5.115-.486.121-.475.128-.463.135-.453.141-.441.148-.429.155-.418.161-.407.168-.4.174-.384.18-.373.188-.361.193-.351.2-.339.207-.328.212-.316.219-.306.226-.3.231-.283.239-.272.244-.262.251-.251.257-.24.264-.23.27-.218.278-.21.287-.2.29-.2.291-.2.293-.188.293-.182.295-.176.3-.17.3-.164.3-.158.3-.152.3-.146.3-.14.3-.135.3-.128.306-.122.306-.117.307-.11.309-.1.31-.1.312-.093.313-.087.314-.081.315-.074.316-.07.318-.063.319-.057.321-.051.321-.046.323-.039.325-.034.325-.028.346-.023.112-.014.095-.009.093-.008.094-.007.091-.005.091,0,.09,0h.84l.362,0,.354.006.347.011.342.015.335.02.33.023.323.028.317.032.31.037.3.041.3.045.292.048.285.054.279.058.274.062.267.065.259.07.254.074.249.078.241.082.235.086.23.09.223.094.216.1.211.1.2.1.2.11.192.113.186.118.181.121.174.125.164.126.322.272.3.287.277.306.257.323.236.341.217.361.2.381.177.4.156.421.136.44.116.462.1.482.074.5.053.525.033.545.011.569v.167l0,.173-.005.176-.006.176-.008.18-.01.182-.012.183-.012.186-.016.188-.016.19-.019.192-.021.194-.023.2-.024.2-.025.2-.028.2-.03.2-.032.206-.034.209-.036.21-.038.212-.041.215-.043.217-.044.218-.048.221-.05.223-.052.226-.054.227-.056.229-.058.231-.018.07-18.859-.052-.067.6-.014.112-.012.109-.013.107-.013.105-.013.1-.012.1-.013.1-.013.1-.011.106-.01.1-.008.1-.007.1,0,.1,0,.1v.1l0,.3.014.295.023.287.033.279.042.27.053.262.063.255.073.244.083.237.093.228.1.221.116.21.126.2.137.19.149.182.161.171.318.292.338.257.354.221.371.18.387.142.4.1.411.06.413.019h.1l.089,0,.09,0,.092-.006.091-.009.093-.009.093-.012.094-.014.094-.015.093-.018.093-.019.093-.021.091-.023.092-.025.091-.027.078-.025.309-.091.328-.123.322-.144.32-.167.315-.189.309-.21.3-.232.3-.254.294-.277.28-.3.264-.315.249-.334.234-.35.217-.37.2-.386.038-.082,8.327-.046-.134.393-.206.512-.231.495-.257.481-.283.465-.308.451-.333.436-.361.421-.386.408-.413.393-.439.378-.467.364-.493.35-.521.335-.55.323-.281.154-.286.15-.289.146-.291.14-.293.136-.294.131-.3.126-.3.12-.3.116-.3.111-.306.106-.31.1-.312.1-.313.091-.317.086-.318.081-.322.077-.323.072-.327.066-.328.062-.331.057-.333.052-.336.047-.338.042-.341.037-.343.032-.346.028-.347.022-.351.017-.353.012-.355.008-.358,0-.448,0-.437-.01-.425-.016-.416-.023-.4-.029-.394-.036-.382-.042-.37-.049-.362-.055-.349-.062-.338-.067-.327-.074-.316-.08-.305-.087-.295-.092-.283-.1-.273-.1-.26-.11-.251-.116-.239-.122-.229-.127-.217-.132-.206-.138-.2-.144-.186-.149-.176-.154-.166-.159-.155-.166-.147-.171-.135-.176-.127-.182-.119-.19-.235-.414-.22-.424-.205-.433-.19-.442-.175-.45-.159-.459-.146-.468-.129-.478-.115-.486-.1-.5-.084-.505-.069-.514-.054-.523-.038-.534-.023-.541-.008-.555v-.014l.07-.522.08-.543.088-.531.094-.521Zm9.576-3.505h10.151l.111-.472.014-.064.013-.067.012-.068.011-.068.01-.07.008-.071.008-.073.006-.071.006-.071.005-.072,0-.072,0-.071,0-.07v-.268l0-.06,0-.063,0-.062-.005-.064-.006-.064-.006-.062-.006-.054-.005-.051,0-.048,0-.049,0-.047,0-.046V360.4l-.076-.375-.088-.335-.109-.329-.129-.323-.15-.316-.171-.308-.189-.3-.214-.3-.249-.292-.282-.261-.311-.222-.337-.182-.361-.14-.38-.1-.4-.058-.41-.019-.266.006-.257.019-.254.031-.254.043-.251.057-.249.068-.246.081-.243.092-.242.105-.238.116-.235.129-.232.14-.229.151-.226.163-.223.175-.221.185-.217.2-.208.206-.2.215-.19.223-.183.231-.174.24-.165.247-.155.256-.148.264-.139.271-.129.28-.121.286-.112.295-.1.3-.094.31-.255.937Z" fill="none" stroke="#00256d" stroke-miterlimit="22.926" stroke-width="0"/>
    <path id="Path_5751" data-name="Path 5751" d="M815.575,421.267l7.917-36.508h8.716L824.7,421.267Z" fill="#00256d" fill-rule="evenodd"/>
    <path id="Path_5752" data-name="Path 5752" d="M815.575,421.267l7.917-36.508h8.716L824.7,421.267Z" fill="none" stroke="#00256d" stroke-miterlimit="22.926" stroke-width="0"/>
    <path id="Path_5753" data-name="Path 5753" d="M781.061,414.48l0,.081v.084l.008.289.025.275.044.259.066.244.09.229.12.212.151.192.176.155.176.114.176.092.184.075.194.061.2.046.207.032.213.019.215.007h.2l.1,0,.1,0,.105,0,.108,0,.11-.006.115-.006.114-.008.114-.007.115-.009.117-.009.117-.011.119-.011.118-.012.128-.014.1-.015.092-.012.093-.013.1-.013.1-.013.173-.022.126-.016.1-.012-1.037,5.058-.116.029-.074.019-.079.02-.083.021-.086.021-.088.022-.093.023-.1.024-.1.025-.09.023-.235.047-.257.048-.268.047-.28.046-.292.043-.3.042-.317.04-.326.04-.331.035-.334.031-.338.026-.341.021-.345.017-.347.012-.352.007-.356,0h-.659L778,422.5l-.345-.024-.341-.033-.335-.04-.332-.048-.328-.056-.323-.064-.319-.072-.315-.08-.311-.088-.307-.1-.3-.1-.3-.112-.294-.119-.291-.128-.282-.133-.261-.139-.237-.149-.218-.161-.2-.174-.184-.188-.168-.2-.152-.215-.137-.23-.122-.246-.106-.262-.091-.279-.075-.3-.06-.314-.042-.332-.026-.35-.008-.371v-.141l.006-.148.009-.151.013-.154.016-.159.022-.162.024-.166.03-.17.032-.178.035-.181.037-.185.041-.189.042-.192.045-.2.047-.2.067-.266V414.5l3-12.439h-5.3l1.36-5.879h4.94l.806-3.811,9.858-3.286-1.6,7.1H790.5l-1.053,5.879h-6.121l-2.111,11.1-.016.119-.013.1-.026.2-.013.095-.013.095-.013.092-.013.093-.012.094-.012.093-.01.091-.008.089-.007.085,0,.084Z" fill="#00256d" fill-rule="evenodd"/>
    <path id="Path_5754" data-name="Path 5754" d="M781.061,414.48l0,.081v.084l.008.289.025.275.044.259.066.244.09.229.12.212.151.192.176.155.176.114.176.092.184.075.194.061.2.046.207.032.213.019.215.007h.2l.1,0,.1,0,.105,0,.108,0,.11-.006.115-.006.114-.008.114-.007.115-.009.117-.009.117-.011.119-.011.118-.012.128-.014.1-.015.092-.012.093-.013.1-.013.1-.013.173-.022.126-.016.1-.012-1.037,5.058-.116.029-.074.019-.079.02-.083.021-.086.021-.088.022-.093.023-.1.024-.1.025-.09.023-.235.047-.257.048-.268.047-.28.046-.292.043-.3.042-.317.04-.326.04-.331.035-.334.031-.338.026-.341.021-.345.017-.347.012-.352.007-.356,0h-.659L778,422.5l-.345-.024-.341-.033-.335-.04-.332-.048-.328-.056-.323-.064-.319-.072-.315-.08-.311-.088-.307-.1-.3-.1-.3-.112-.294-.119-.291-.128-.282-.133-.261-.139-.237-.149-.218-.161-.2-.174-.184-.188-.168-.2-.152-.215-.137-.23-.122-.246-.106-.262-.091-.279-.075-.3-.06-.314-.042-.332-.026-.35-.008-.371v-.141l.006-.148.009-.151.013-.154.016-.159.022-.162.024-.166.03-.17.032-.178.035-.181.037-.185.041-.189.042-.192.045-.2.047-.2.067-.266V414.5l3-12.439h-5.3l1.36-5.879h4.94l.806-3.811,9.858-3.286-1.6,7.1H790.5l-1.053,5.879h-6.121l-2.111,11.1-.016.119-.013.1-.026.2-.013.095-.013.095-.013.092-.013.093-.012.094-.012.093-.01.091-.008.089-.007.085,0,.084Z" fill="none" stroke="#00256d" stroke-miterlimit="22.926" stroke-width="0"/>
    <path id="Path_5755" data-name="Path 5755" d="M759.355,395.463l.457.04.451.05.445.06.44.069.435.079.429.088.424.1.418.107.414.117.408.127.4.136.4.146.384.152.352.164.319.188.3.216.276.245.254.274.234.306.214.338.194.372.173.406.151.441.13.476.107.511.084.546.06.581.036.616.013.656v.284l-8.644-.046,0-.039,0-.063,0-.062,0-.062v-.129l-.013-.314-.039-.308-.067-.3-.1-.282-.126-.266-.155-.247-.184-.226-.212-.2-.244-.181-.271-.152-.294-.125-.316-.1-.338-.075-.359-.052-.382-.031-.407-.01-.256.01-.254.031-.248.052-.24.075-.231.1-.221.118-.21.138-.2.158-.181.17-.168.184-.156.2-.142.21-.13.221-.117.234-.105.244-.117.323v.031l-.005.013-.015.041-.012.043-.01.044-.007.045,0,.046v.277l.028.335.093.342.155.319.214.287.261.25.3.217.343.185.373.155.2.069.188.065.19.062.192.061.194.059.2.058.2.056.2.055.2.053.205.05.206.049.21.048.212.046.214.044.215.042.213.041.129.025.133.025.132.024.133.023.133.023.133.022.132.021.132.021.129.02.127.02.126.021.127.022.126.022.127.024.126.024.135.027.161.027.149.026.145.025.143.026.138.025.137.026.13.025.127.026.118.025.107.025.1.026.092.027.083.027.076.028.065.027.1.047.363.121.313.112.3.114.286.118.271.12.258.124.245.126.231.129.217.131.2.134.19.135.176.138.162.139.15.141.136.143.124.145.115.15.108.156.1.162.095.168.086.173.079.179.072.185.065.192.057.2.05.206.042.211.036.218.027.224.02.232.012.239,0,.243-.016.652-.046.626-.077.6-.107.579-.137.554-.167.532-.2.508-.227.486-.256.464-.286.443-.316.421-.346.4-.378.381-.408.361-.44.34-.477.324-.247.153-.253.152-.255.148-.255.143-.258.138-.26.134-.261.13-.262.124-.264.12-.266.116-.267.111-.268.107-.27.1-.272.1-.273.092-.275.088-.277.083-.279.079-.281.075-.281.07-.284.065-.285.061-.287.056-.288.052-.29.047-.292.042-.294.038-.3.033-.3.028-.3.024-.3.02-.342.017-.094.017-.052.008-.054.007-.054.006-.056,0-.056,0-.059,0h-.593l-.455-.015-.45-.018-.439-.022-.428-.025-.417-.029-.406-.032-.394-.036-.383-.039-.373-.043-.361-.046-.35-.05-.338-.053-.328-.057-.316-.06-.305-.063-.294-.066-.283-.07-.272-.073-.26-.077-.248-.079-.237-.082-.225-.085-.214-.088-.2-.09-.191-.093-.179-.1-.167-.1-.156-.1-.144-.1-.132-.1-.121-.1-.112-.107-.229-.242-.215-.247-.2-.25-.185-.253-.17-.256-.155-.26-.141-.264-.126-.267-.112-.271-.1-.275-.084-.279-.069-.283-.056-.288-.041-.293-.027-.3-.013-.3v-.164l0-.173.005-.173.009-.171.01-.171.013-.169.016-.168.037-.346.019-.176.017-.176.017-.175.016-.174,0-.021,8.637-.046-.008.043-.014.086-.012.086-.01.084-.008.084-.007.082,0,.081,0,.079v.382l.03.315.062.3.1.29.129.274.163.255.194.232.219.2.225.173.229.153.236.134.244.117.252.1.258.078.264.059.29.043h.307l.388-.011.379-.032.363-.054.348-.077.33-.1.313-.124.294-.15.279-.175.256-.206.228-.235.193-.261.159-.285.121-.307.085-.323.049-.338.017-.351-.01-.26-.03-.248-.051-.24-.073-.231-.1-.22-.119-.205-.143-.191-.159-.168-.167-.149-.175-.138-.189-.134-.2-.128-.215-.124-.228-.119-.241-.116-.278-.122-.122-.037-.09-.027-.09-.028-.091-.03-.094-.032-.095-.033-.1-.035-.1-.037-.106-.04-.11-.04-.111-.04-.11-.039-.114-.04-.115-.039-.117-.04-.118-.04-.048-.016-.049-.014-.049-.014-.049-.013-.05-.012-.048-.01-.05-.01-.043-.007-.034-.006-.029-.006-.028-.007-.029-.007-.029-.007-.028-.008-.029-.009-.066-.021-.173-.034-.139-.028-.14-.031-.141-.032-.144-.036-.146-.037-.147-.04-.148-.042-.151-.045-.15-.045-.148-.047-.145-.046-.144-.048-.143-.049-.141-.049-.157-.056-.2-.057-.18-.052-.176-.051-.174-.051-.174-.052-.172-.052-.17-.052-.168-.051-.171-.053-.171-.05-.168-.049-.166-.047-.165-.046-.164-.044-.162-.042-.127-.032-.321-.122-.313-.145-.294-.162-.274-.178-.256-.2-.238-.213-.221-.231-.206-.253-.195-.271-.18-.276-.162-.279-.145-.281-.129-.285-.112-.287-.1-.291-.076-.281-.008-.048-.011-.072-.01-.072-.01-.07-.009-.069-.008-.068-.007-.067-.006-.065-.006-.066,0-.066,0-.068,0-.067,0-.069,0-.07v-.19l0-.185.01-.189.016-.2.024-.208.031-.217.038-.226.045-.235.052-.242.06-.245.069-.243.079-.245.09-.248.1-.251.11-.253.12-.255.13-.256.139-.253.152-.249.165-.247.178-.245.193-.244.206-.242.219-.241.234-.238.247-.237.261-.234.275-.233.29-.23.3-.229.318-.226.331-.224.343-.219.353-.208.37-.193.391-.181.412-.168.433-.156.455-.142.475-.13.5-.116.518-.1.54-.09.561-.076.583-.062.6-.049.624-.035.645-.021.669-.007h1.081l.471.011.468.021.461.031Z" fill="#00256d" fill-rule="evenodd"/>
    <path id="Path_5756" data-name="Path 5756" d="M759.355,395.463l.457.04.451.05.445.06.44.069.435.079.429.088.424.1.418.107.414.117.408.127.4.136.4.146.384.152.352.164.319.188.3.216.276.245.254.274.234.306.214.338.194.372.173.406.151.441.13.476.107.511.084.546.06.581.036.616.013.656v.284l-8.644-.046,0-.039,0-.063,0-.062,0-.062v-.129l-.013-.314-.039-.308-.067-.3-.1-.282-.126-.266-.155-.247-.184-.226-.212-.2-.244-.181-.271-.152-.294-.125-.316-.1-.338-.075-.359-.052-.382-.031-.407-.01-.256.01-.254.031-.248.052-.24.075-.231.1-.221.118-.21.138-.2.158-.181.17-.168.184-.156.2-.142.21-.13.221-.117.234-.105.244-.117.323v.031l-.005.013-.015.041-.012.043-.01.044-.007.045,0,.046v.277l.028.335.093.342.155.319.214.287.261.25.3.217.343.185.373.155.2.069.188.065.19.062.192.061.194.059.2.058.2.056.2.055.2.053.205.05.206.049.21.048.212.046.214.044.215.042.213.041.129.025.133.025.132.024.133.023.133.023.133.022.132.021.132.021.129.02.127.02.126.021.127.022.126.022.127.024.126.024.135.027.161.027.149.026.145.025.143.026.138.025.137.026.13.025.127.026.118.025.107.025.1.026.092.027.083.027.076.028.065.027.1.047.363.121.313.112.3.114.286.118.271.12.258.124.245.126.231.129.217.131.2.134.19.135.176.138.162.139.15.141.136.143.124.145.115.15.108.156.1.162.095.168.086.173.079.179.072.185.065.192.057.2.05.206.042.211.036.218.027.224.02.232.012.239,0,.243-.016.652-.046.626-.077.6-.107.579-.137.554-.167.532-.2.508-.227.486-.256.464-.286.443-.316.421-.346.4-.378.381-.408.361-.44.34-.477.324-.247.153-.253.152-.255.148-.255.143-.258.138-.26.134-.261.13-.262.124-.264.12-.266.116-.267.111-.268.107-.27.1-.272.1-.273.092-.275.088-.277.083-.279.079-.281.075-.281.07-.284.065-.285.061-.287.056-.288.052-.29.047-.292.042-.294.038-.3.033-.3.028-.3.024-.3.02-.342.017-.094.017-.052.008-.054.007-.054.006-.056,0-.056,0-.059,0h-.593l-.455-.015-.45-.018-.439-.022-.428-.025-.417-.029-.406-.032-.394-.036-.383-.039-.373-.043-.361-.046-.35-.05-.338-.053-.328-.057-.316-.06-.305-.063-.294-.066-.283-.07-.272-.073-.26-.077-.248-.079-.237-.082-.225-.085-.214-.088-.2-.09-.191-.093-.179-.1-.167-.1-.156-.1-.144-.1-.132-.1-.121-.1-.112-.107-.229-.242-.215-.247-.2-.25-.185-.253-.17-.256-.155-.26-.141-.264-.126-.267-.112-.271-.1-.275-.084-.279-.069-.283-.056-.288-.041-.293-.027-.3-.013-.3v-.164l0-.173.005-.173.009-.171.01-.171.013-.169.016-.168.037-.346.019-.176.017-.176.017-.175.016-.174,0-.021,8.637-.046-.008.043-.014.086-.012.086-.01.084-.008.084-.007.082,0,.081,0,.079v.382l.03.315.062.3.1.29.129.274.163.255.194.232.219.2.225.173.229.153.236.134.244.117.252.1.258.078.264.059.29.043h.307l.388-.011.379-.032.363-.054.348-.077.33-.1.313-.124.294-.15.279-.175.256-.206.228-.235.193-.261.159-.285.121-.307.085-.323.049-.338.017-.351-.01-.26-.03-.248-.051-.24-.073-.231-.1-.22-.119-.205-.143-.191-.159-.168-.167-.149-.175-.138-.189-.134-.2-.128-.215-.124-.228-.119-.241-.116-.278-.122-.122-.037-.09-.027-.09-.028-.091-.03-.094-.032-.095-.033-.1-.035-.1-.037-.106-.04-.11-.04-.111-.04-.11-.039-.114-.04-.115-.039-.117-.04-.118-.04-.048-.016-.049-.014-.049-.014-.049-.013-.05-.012-.048-.01-.05-.01-.043-.007-.034-.006-.029-.006-.028-.007-.029-.007-.029-.007-.028-.008-.029-.009-.066-.021-.173-.034-.139-.028-.14-.031-.141-.032-.144-.036-.146-.037-.147-.04-.148-.042-.151-.045-.15-.045-.148-.047-.145-.046-.144-.048-.143-.049-.141-.049-.157-.056-.2-.057-.18-.052-.176-.051-.174-.051-.174-.052-.172-.052-.17-.052-.168-.051-.171-.053-.171-.05-.168-.049-.166-.047-.165-.046-.164-.044-.162-.042-.127-.032-.321-.122-.313-.145-.294-.162-.274-.178-.256-.2-.238-.213-.221-.231-.206-.253-.195-.271-.18-.276-.162-.279-.145-.281-.129-.285-.112-.287-.1-.291-.076-.281-.008-.048-.011-.072-.01-.072-.01-.07-.009-.069-.008-.068-.007-.067-.006-.065-.006-.066,0-.066,0-.068,0-.067,0-.069,0-.07v-.19l0-.185.01-.189.016-.2.024-.208.031-.217.038-.226.045-.235.052-.242.06-.245.069-.243.079-.245.09-.248.1-.251.11-.253.12-.255.13-.256.139-.253.152-.249.165-.247.178-.245.193-.244.206-.242.219-.241.234-.238.247-.237.261-.234.275-.233.29-.23.3-.229.318-.226.331-.224.343-.219.353-.208.37-.193.391-.181.412-.168.433-.156.455-.142.475-.13.5-.116.518-.1.54-.09.561-.076.583-.062.6-.049.624-.035.645-.021.669-.007h1.081l.471.011.468.021.461.031Z" fill="none" stroke="#00256d" stroke-miterlimit="22.926" stroke-width="0"/>
    <path id="Path_5757" data-name="Path 5757" d="M704.61,414.561v.084l.008.289.025.275.044.259.066.244.09.229.12.212.151.191.176.155.176.114.176.092.183.075.194.061.2.046.207.032.214.019.215.007h.2l.1,0,.1,0,.105,0,.108,0,.11-.006.115-.006.114-.008.114-.007.115-.009.117-.009.117-.011.118-.011.118-.012.128-.014.1-.015.091-.012.093-.013.1-.013.1-.013.173-.022.126-.016.1-.012-1.037,5.058-.116.029-.075.019-.079.02-.083.021-.086.021-.088.022-.093.023-.1.024-.1.025-.09.023-.236.047-.257.048-.268.047-.28.046-.292.043-.3.042-.316.041-.326.04-.331.035-.334.031-.338.026-.341.021-.344.017-.348.012-.352.007-.356,0h-.659l-.343-.017-.344-.024-.341-.033-.335-.04-.332-.048-.328-.056-.324-.064-.318-.072-.315-.08-.311-.088-.307-.1-.3-.1-.3-.112-.294-.119-.291-.128-.282-.133-.261-.139-.237-.149-.218-.161-.2-.174-.185-.188-.168-.2-.152-.215-.137-.23-.122-.246-.106-.262-.092-.279-.075-.3-.06-.314-.043-.332-.026-.35-.008-.371,0-.141.006-.148.009-.151.013-.154.017-.159.021-.162.024-.166.029-.171.032-.177.035-.181.037-.185.04-.189.042-.192.045-.2.047-.2.067-.266V414.5l3-12.439h-5.3l1.36-5.879h4.94l.805-3.811,9.859-3.286-1.6,7.1h5.792L713,402.058h-6.121l-2.111,11.1-.015.119-.013.1-.013.1-.013.1-.022.166-.016.115-.013.092-.013.094-.012.094-.01.091-.008.089-.007.085,0,.084,0,.081Z" fill="#00256d" fill-rule="evenodd"/>
    <path id="Path_5758" data-name="Path 5758" d="M704.61,414.561v.084l.008.289.025.275.044.259.066.244.09.229.12.212.151.191.176.155.176.114.176.092.183.075.194.061.2.046.207.032.214.019.215.007h.2l.1,0,.1,0,.105,0,.108,0,.11-.006.115-.006.114-.008.114-.007.115-.009.117-.009.117-.011.118-.011.118-.012.128-.014.1-.015.091-.012.093-.013.1-.013.1-.013.173-.022.126-.016.1-.012-1.037,5.058-.116.029-.075.019-.079.02-.083.021-.086.021-.088.022-.093.023-.1.024-.1.025-.09.023-.236.047-.257.048-.268.047-.28.046-.292.043-.3.042-.316.041-.326.04-.331.035-.334.031-.338.026-.341.021-.344.017-.348.012-.352.007-.356,0h-.659l-.343-.017-.344-.024-.341-.033-.335-.04-.332-.048-.328-.056-.324-.064-.318-.072-.315-.08-.311-.088-.307-.1-.3-.1-.3-.112-.294-.119-.291-.128-.282-.133-.261-.139-.237-.149-.218-.161-.2-.174-.185-.188-.168-.2-.152-.215-.137-.23-.122-.246-.106-.262-.092-.279-.075-.3-.06-.314-.043-.332-.026-.35-.008-.371,0-.141.006-.148.009-.151.013-.154.017-.159.021-.162.024-.166.029-.171.032-.177.035-.181.037-.185.04-.189.042-.192.045-.2.047-.2.067-.266V414.5l3-12.439h-5.3l1.36-5.879h4.94l.805-3.811,9.859-3.286-1.6,7.1h5.792L713,402.058h-6.121l-2.111,11.1-.015.119-.013.1-.013.1-.013.1-.022.166-.016.115-.013.092-.013.094-.012.094-.01.091-.008.089-.007.085,0,.084,0,.081Z" fill="none" stroke="#00256d" stroke-miterlimit="22.926" stroke-width="0"/>
    <path id="Path_5759" data-name="Path 5759" d="M683.054,395.463l.457.04.451.05.446.06.44.069.435.079.429.088.424.1.418.107.414.117.408.127.4.136.4.146.384.152.352.164.32.188.3.216.276.245.254.274.234.306.214.338.194.372.172.406.152.441.13.476.107.511.084.546.06.581.036.616.013.656v.284l-8.645-.046,0-.039,0-.063,0-.062,0-.062v-.129l-.013-.314-.039-.308-.067-.3-.1-.282-.126-.266-.155-.247-.184-.226-.212-.2-.244-.181-.271-.152-.294-.125-.316-.1-.338-.075-.359-.052-.381-.031-.408-.01-.256.01-.254.031-.248.052-.24.075-.231.1-.221.118-.21.138-.2.158-.181.17-.168.184-.156.2-.142.21-.13.221-.117.234-.105.244-.117.323v.031l-.005.013-.015.041-.012.043-.01.044-.007.045-.005.046v.277l.028.335.094.342.156.319.213.287.262.25.3.217.343.185.373.155.2.069.188.065.19.062.192.061.194.059.2.058.2.056.2.055.2.053.206.05.206.049.21.048.212.046.214.044.215.042.213.041.129.025.134.025.132.024.133.023.133.023.133.022.131.021.133.021.129.02.127.02.126.021.127.022.126.022.127.024.126.024.135.027.161.027.149.026.145.025.143.026.138.025.136.026.131.025.127.026.118.025.107.025.1.026.092.027.083.028.075.028.065.027.1.047.363.121.313.112.3.114.286.118.272.12.258.124.244.126.231.129.216.131.2.134.19.135.176.138.162.139.15.141.136.143.124.145.115.15.108.156.1.162.094.168.086.173.079.179.072.185.065.192.057.2.05.206.042.211.035.218.027.224.02.232.012.239,0,.243-.016.652-.046.626-.077.6-.107.579-.137.554-.167.532-.2.509-.226.486-.256.464-.286.443-.317.421-.346.4-.378.381-.408.36-.44.341-.477.324-.247.153-.253.152-.255.148-.255.143-.258.138-.26.134-.261.13-.262.124-.264.12-.266.116-.267.111-.268.107-.27.1-.272.1-.274.092-.274.088-.278.083-.278.079-.281.075-.281.07-.284.065-.285.061-.287.056-.288.052-.29.047-.292.042-.294.038-.3.033-.3.028-.3.024-.3.02-.342.017-.094.017-.052.008-.054.007-.054.006-.056,0-.057,0-.058,0h-.593l-.455-.015-.45-.018-.439-.022-.428-.025-.417-.029-.406-.032-.395-.036-.383-.039-.373-.043-.361-.046-.35-.05-.338-.053-.328-.057-.316-.06-.306-.063-.293-.066-.283-.07-.271-.073-.26-.077-.248-.079-.237-.082-.225-.085-.214-.088-.2-.09-.191-.093-.179-.1-.167-.1-.156-.1-.145-.1-.132-.1-.122-.1-.112-.107-.229-.242-.215-.247-.2-.25-.185-.253-.17-.256-.155-.26-.141-.264-.126-.267-.112-.272-.1-.275-.083-.279-.069-.283-.056-.288-.041-.293-.027-.3-.013-.3v-.164l0-.173.006-.173.008-.171.01-.171.013-.169.015-.168.037-.346.019-.176.017-.176.017-.175.016-.174v-.021l8.637-.046-.007.044-.014.086-.012.085-.01.084-.008.084-.007.082,0,.081,0,.079v.382l.03.315.061.3.1.29.129.274.163.254.193.232.219.2.225.174.229.153.236.134.244.117.252.1.258.078.263.059.289.043h.307l.388-.011.38-.032.363-.054.348-.077.33-.1.313-.124.294-.15.278-.175.256-.206.228-.235.194-.261.159-.285.121-.307.085-.323.05-.338.017-.351-.011-.26-.03-.248-.051-.24-.073-.231-.1-.22-.119-.205-.142-.191-.159-.169-.167-.149-.176-.139-.189-.133-.2-.128-.215-.124-.228-.119-.241-.116-.278-.122-.123-.037-.09-.027-.089-.028-.091-.03-.094-.032-.095-.033-.1-.035-.1-.037-.106-.04-.11-.04-.111-.04-.111-.039-.114-.04-.115-.04-.117-.039-.118-.04-.048-.016-.049-.014-.049-.014-.049-.013-.05-.012-.048-.01-.05-.01-.043-.007-.034-.006-.029-.006-.028-.007-.029-.007-.029-.007-.028-.008-.029-.009-.066-.021-.172-.034-.139-.028-.14-.031-.141-.032-.144-.036-.145-.037-.147-.04-.148-.042-.151-.045-.151-.046-.148-.046-.145-.046-.144-.048-.143-.049-.142-.049-.156-.056-.2-.057-.179-.052-.176-.051-.174-.051-.174-.052-.172-.052-.17-.052-.168-.051-.17-.053-.171-.05-.168-.049-.165-.047-.166-.046-.164-.044-.162-.042-.127-.032-.32-.122-.314-.145-.294-.162-.274-.178-.256-.2-.238-.213-.221-.231-.207-.253-.194-.271-.18-.276-.163-.279-.145-.281-.129-.285-.112-.287-.1-.291-.076-.282-.008-.048-.01-.071-.01-.072-.009-.07-.009-.069-.008-.068-.007-.067-.006-.065-.006-.066,0-.066,0-.068,0-.067,0-.069,0-.07v-.19l0-.185.01-.189.016-.2.024-.208.031-.217.038-.226.045-.235.052-.242.06-.245.069-.243.078-.245.09-.248.1-.251.11-.253.12-.255.13-.256.139-.253.152-.249.164-.247.178-.245.192-.244.206-.242.22-.241.234-.238.247-.237.261-.234.275-.233.29-.23.3-.229.318-.226.331-.224.343-.219.353-.208.37-.193.391-.181.412-.168.434-.156.454-.142.476-.13.5-.116.518-.1.54-.09.561-.076.583-.062.6-.049.625-.035.645-.021.67-.007h1.081l.471.011.468.021.461.031Z" fill="#00256d" fill-rule="evenodd"/>
    <path id="Path_5760" data-name="Path 5760" d="M683.054,395.463l.457.04.451.05.446.06.44.069.435.079.429.088.424.1.418.107.414.117.408.127.4.136.4.146.384.152.352.164.32.188.3.216.276.245.254.274.234.306.214.338.194.372.172.406.152.441.13.476.107.511.084.546.06.581.036.616.013.656v.284l-8.645-.046,0-.039,0-.063,0-.062,0-.062v-.129l-.013-.314-.039-.308-.067-.3-.1-.282-.126-.266-.155-.247-.184-.226-.212-.2-.244-.181-.271-.152-.294-.125-.316-.1-.338-.075-.359-.052-.381-.031-.408-.01-.256.01-.254.031-.248.052-.24.075-.231.1-.221.118-.21.138-.2.158-.181.17-.168.184-.156.2-.142.21-.13.221-.117.234-.105.244-.117.323v.031l-.005.013-.015.041-.012.043-.01.044-.007.045-.005.046v.277l.028.335.094.342.156.319.213.287.262.25.3.217.343.185.373.155.2.069.188.065.19.062.192.061.194.059.2.058.2.056.2.055.2.053.206.05.206.049.21.048.212.046.214.044.215.042.213.041.129.025.134.025.132.024.133.023.133.023.133.022.131.021.133.021.129.02.127.02.126.021.127.022.126.022.127.024.126.024.135.027.161.027.149.026.145.025.143.026.138.025.136.026.131.025.127.026.118.025.107.025.1.026.092.027.083.028.075.028.065.027.1.047.363.121.313.112.3.114.286.118.272.12.258.124.244.126.231.129.216.131.2.134.19.135.176.138.162.139.15.141.136.143.124.145.115.15.108.156.1.162.094.168.086.173.079.179.072.185.065.192.057.2.05.206.042.211.035.218.027.224.02.232.012.239,0,.243-.016.652-.046.626-.077.6-.107.579-.137.554-.167.532-.2.509-.226.486-.256.464-.286.443-.317.421-.346.4-.378.381-.408.36-.44.341-.477.324-.247.153-.253.152-.255.148-.255.143-.258.138-.26.134-.261.13-.262.124-.264.12-.266.116-.267.111-.268.107-.27.1-.272.1-.274.092-.274.088-.278.083-.278.079-.281.075-.281.07-.284.065-.285.061-.287.056-.288.052-.29.047-.292.042-.294.038-.3.033-.3.028-.3.024-.3.02-.342.017-.094.017-.052.008-.054.007-.054.006-.056,0-.057,0-.058,0h-.593l-.455-.015-.45-.018-.439-.022-.428-.025-.417-.029-.406-.032-.395-.036-.383-.039-.373-.043-.361-.046-.35-.05-.338-.053-.328-.057-.316-.06-.306-.063-.293-.066-.283-.07-.271-.073-.26-.077-.248-.079-.237-.082-.225-.085-.214-.088-.2-.09-.191-.093-.179-.1-.167-.1-.156-.1-.145-.1-.132-.1-.122-.1-.112-.107-.229-.242-.215-.247-.2-.25-.185-.253-.17-.256-.155-.26-.141-.264-.126-.267-.112-.272-.1-.275-.083-.279-.069-.283-.056-.288-.041-.293-.027-.3-.013-.3v-.164l0-.173.006-.173.008-.171.01-.171.013-.169.015-.168.037-.346.019-.176.017-.176.017-.175.016-.174v-.021l8.637-.046-.007.044-.014.086-.012.085-.01.084-.008.084-.007.082,0,.081,0,.079v.382l.03.315.061.3.1.29.129.274.163.254.193.232.219.2.225.174.229.153.236.134.244.117.252.1.258.078.263.059.289.043h.307l.388-.011.38-.032.363-.054.348-.077.33-.1.313-.124.294-.15.278-.175.256-.206.228-.235.194-.261.159-.285.121-.307.085-.323.05-.338.017-.351-.011-.26-.03-.248-.051-.24-.073-.231-.1-.22-.119-.205-.142-.191-.159-.169-.167-.149-.176-.139-.189-.133-.2-.128-.215-.124-.228-.119-.241-.116-.278-.122-.123-.037-.09-.027-.089-.028-.091-.03-.094-.032-.095-.033-.1-.035-.1-.037-.106-.04-.11-.04-.111-.04-.111-.039-.114-.04-.115-.04-.117-.039-.118-.04-.048-.016-.049-.014-.049-.014-.049-.013-.05-.012-.048-.01-.05-.01-.043-.007-.034-.006-.029-.006-.028-.007-.029-.007-.029-.007-.028-.008-.029-.009-.066-.021-.172-.034-.139-.028-.14-.031-.141-.032-.144-.036-.145-.037-.147-.04-.148-.042-.151-.045-.151-.046-.148-.046-.145-.046-.144-.048-.143-.049-.142-.049-.156-.056-.2-.057-.179-.052-.176-.051-.174-.051-.174-.052-.172-.052-.17-.052-.168-.051-.17-.053-.171-.05-.168-.049-.165-.047-.166-.046-.164-.044-.162-.042-.127-.032-.32-.122-.314-.145-.294-.162-.274-.178-.256-.2-.238-.213-.221-.231-.207-.253-.194-.271-.18-.276-.163-.279-.145-.281-.129-.285-.112-.287-.1-.291-.076-.282-.008-.048-.01-.071-.01-.072-.009-.07-.009-.069-.008-.068-.007-.067-.006-.065-.006-.066,0-.066,0-.068,0-.067,0-.069,0-.07v-.19l0-.185.01-.189.016-.2.024-.208.031-.217.038-.226.045-.235.052-.242.06-.245.069-.243.078-.245.09-.248.1-.251.11-.253.12-.255.13-.256.139-.253.152-.249.164-.247.178-.245.192-.244.206-.242.22-.241.234-.238.247-.237.261-.234.275-.233.29-.23.3-.229.318-.226.331-.224.343-.219.353-.208.37-.193.391-.181.412-.168.434-.156.454-.142.476-.13.5-.116.518-.1.54-.09.561-.076.583-.062.6-.049.625-.035.645-.021.67-.007h1.081l.471.011.468.021.461.031Z" fill="none" stroke="#00256d" stroke-miterlimit="22.926" stroke-width="0"/>
    <path id="Path_5761" data-name="Path 5761" d="M587.451,421.267l7.967-36.508h15.4l.836,25.853,11.869-25.853h15.344L631.3,421.267h-8.3l7.306-35.138-16.873,35.138h-8.546l-1.854-35.1-7.3,35.1Z" fill="#00256d" fill-rule="evenodd"/>
    <path id="Path_5762" data-name="Path 5762" d="M587.451,421.267l7.967-36.508h15.4l.836,25.853,11.869-25.853h15.344L631.3,421.267h-8.3l7.306-35.138-16.873,35.138h-8.546l-1.854-35.1-7.3,35.1Z" fill="none" stroke="#00256d" stroke-miterlimit="22.926" stroke-width="0"/>
    <path id="Path_5763" data-name="Path 5763" d="M792.331,401.636l.141-.414.165-.4.189-.383.214-.368.237-.353.263-.339.288-.325.315-.31.339-.3.366-.283.393-.27.423-.257.445-.249.453-.237.457-.224.462-.212.468-.2.471-.187.478-.175.482-.162.487-.15.493-.138.5-.125.5-.113.507-.1.513-.088.518-.076.534-.064.181-.025.174-.021.172-.02.173-.016.17-.014.171-.013.169-.009.17-.008.171-.006.171-.005.171-.005.17,0,.168,0,.169,0h.333l.384,0,.376.006.367.009.36.014.352.016.343.021.336.025.328.028.321.032.312.035.3.04.3.044.289.046.28.05.271.054.265.058.255.061.248.064.239.068.232.072.223.074.215.079.206.081.2.085.191.087.182.091.174.094.166.1.159.1.15.1.142.105.135.108.267.234.249.239.231.244.213.249.194.255.177.259.159.266.143.271.125.276.109.282.092.289.075.3.059.3.042.31.025.317.009.33v.09l0,.1,0,.1-.005.1-.007.1-.008.1-.01.1-.012.1-.012.108-.013.113-.013.113-.013.114-.014.114-.013.115-.012.116-.009.079-.005.018-.014.058-.013.056-.027.113-.013.059-.014.059-.013.058-.013.056-.012.056-.025.11-.013.052-.012.052-.013.052-.015.061-2.864,13.433-.373,4.059h-8.781v-.355l0-.09,0-.091.005-.092.007-.093.008-.093.01-.1.01-.092.012-.082.014-.087.014-.09.015-.09.016-.091.017-.091.018-.092.018-.092.019-.091.021-.092.023-.1.026-.1.028-.1.031-.1.032-.1,1.111-3.348-2.174,2.959-.155.2-.161.191-.167.185-.174.179-.181.173-.186.168-.193.161-.2.156-.207.15-.213.145-.221.139-.227.133-.234.128-.241.122-.249.117-.256.112-.259.109-.259.1-.26.1-.262.092-.263.087-.265.081-.264.077-.267.07-.267.066-.269.06-.269.055-.271.049-.272.045-.274.04-.247.03h-.154l-.093,0-.09,0-.09,0-.088.005-.086.005-.081.007-.076.005-.072.006-.073,0-.072,0-.072,0-.072,0-.073,0h-.07l-.365-.006-.36-.016-.354-.027-.348-.038-.344-.049-.339-.059-.334-.07-.327-.08-.324-.092-.318-.1-.315-.112-.309-.124-.3-.134-.3-.145-.3-.156-.288-.165-.272-.173-.251-.182-.235-.193-.217-.2-.2-.215-.184-.225-.168-.236-.152-.248-.137-.261-.121-.273-.107-.287-.089-.3-.075-.314-.059-.327-.043-.343-.025-.349v-.5l0-.475.022-.452.04-.44.059-.426.077-.414.095-.4.114-.389.132-.376.15-.366.167-.352.186-.342.2-.33.223-.32.241-.308.26-.3.282-.29.3-.287.3-.281.307-.271.312-.262.314-.253.317-.244.321-.235.324-.226.327-.218.33-.208.334-.2.336-.191.34-.182.343-.172.346-.164.344-.151.345-.133.352-.129.349-.122.346-.114.344-.108.341-.1.338-.093.337-.085.331-.08.322-.071.313-.065.3-.057.294-.05.284-.042.274-.036.287-.03.245-.04.227-.034.226-.032.226-.03.224-.028.224-.024.223-.023.223-.02.225-.019.226-.018.227-.017.228-.017.229-.015.229-.015.231-.014.231-.013.229-.013.229-.01.228-.009.227-.007.226-.005.225,0,.225,0h2.533l.092-.63.023-.169.021-.164.018-.161.016-.158.013-.154.01-.15.009-.145.006-.139.006-.132,0-.13,0-.125,0-.121,0-.117v-.229l-.009-.418-.029-.393-.05-.362-.072-.336-.1-.308-.126-.283-.162-.255-.2-.217-.224-.174-.246-.14-.267-.113-.289-.088-.309-.066-.33-.045-.352-.027-.382-.008-.427.019-.421.059-.408.1-.393.142-.377.18-.361.221-.341.257-.316.291-.157.163-.146.167-.139.172-.131.18-.124.183-.117.192-.109.2-.1.2-.095.208-.087.216-.081.22-.073.225-.066.23-.059.238-.008.036-8.361-.047.056-.378.092-.447.117-.431Zm7.022,8.386h0l-.29.176-.274.183-.257.19-.24.2-.225.2-.208.212-.19.22-.172.227-.156.235-.135.242-.118.249-.1.257-.078.262-.057.268-.038.273-.017.279,0,.161.008.15.014.147.02.148.025.146.031.146.037.145.043.145.05.144.056.146.064.146.071.145.078.145.084.144.09.144.107.157.118.144.117.127.123.12.129.112.134.1.141.1.145.086.151.077.153.067.155.058.159.05.161.04.164.031.165.022.167.013.169,0,.124,0,.121-.005.121-.009.123-.013.122-.017.123-.02.124-.024.124-.027.119-.03.116-.03.117-.032.116-.034.115-.036.114-.038.112-.039.134-.048.426-.2.411-.235.4-.269.389-.3.378-.334.367-.364.356-.4.345-.426.17-.231.159-.233.148-.238.138-.242.127-.247.116-.25.1-.255.094-.258a14.273,14.273,0,0,0,.738-3.173c.046-.625-.874-.567-1.323-.543h-.543l-.389.011-.382.022-.377.032-.37.042-.365.053-.359.063-.354.073-.347.084-.342.093-.335.105-.33.114-.323.126-.318.135-.312.146-.3.156-.3.167Z" fill="#00256d" fill-rule="evenodd"/>
    <path id="Path_5764" data-name="Path 5764" d="M792.331,401.636l.141-.414.165-.4.189-.383.214-.368.237-.353.263-.339.288-.325.315-.31.339-.3.366-.283.393-.27.423-.257.445-.249.453-.237.457-.224.462-.212.468-.2.471-.187.478-.175.482-.162.487-.15.493-.138.5-.125.5-.113.507-.1.513-.088.518-.076.534-.064.181-.025.174-.021.172-.02.173-.016.17-.014.171-.013.169-.009.17-.008.171-.006.171-.005.171-.005.17,0,.168,0,.169,0h.333l.384,0,.376.006.367.009.36.014.352.016.343.021.336.025.328.028.321.032.312.035.3.04.3.044.289.046.28.05.271.054.265.058.255.061.248.064.239.068.232.072.223.074.215.079.206.081.2.085.191.087.182.091.174.094.166.1.159.1.15.1.142.105.135.108.267.234.249.239.231.244.213.249.194.255.177.259.159.266.143.271.125.276.109.282.092.289.075.3.059.3.042.31.025.317.009.33v.09l0,.1,0,.1-.005.1-.007.1-.008.1-.01.1-.012.1-.012.108-.013.113-.013.113-.013.114-.014.114-.013.115-.012.116-.009.079-.005.018-.014.058-.013.056-.027.113-.013.059-.014.059-.013.058-.013.056-.012.056-.025.11-.013.052-.012.052-.013.052-.015.061-2.864,13.433-.373,4.059h-8.781v-.355l0-.09,0-.091.005-.092.007-.093.008-.093.01-.1.01-.092.012-.082.014-.087.014-.09.015-.09.016-.091.017-.091.018-.092.018-.092.019-.091.021-.092.023-.1.026-.1.028-.1.031-.1.032-.1,1.111-3.348-2.174,2.959-.155.2-.161.191-.167.185-.174.179-.181.173-.186.168-.193.161-.2.156-.207.15-.213.145-.221.139-.227.133-.234.128-.241.122-.249.117-.256.112-.259.109-.259.1-.26.1-.262.092-.263.087-.265.081-.264.077-.267.07-.267.066-.269.06-.269.055-.271.049-.272.045-.274.04-.247.03h-.154l-.093,0-.09,0-.09,0-.088.005-.086.005-.081.007-.076.005-.072.006-.073,0-.072,0-.072,0-.072,0-.073,0h-.07l-.365-.006-.36-.016-.354-.027-.348-.038-.344-.049-.339-.059-.334-.07-.327-.08-.324-.092-.318-.1-.315-.112-.309-.124-.3-.134-.3-.145-.3-.156-.288-.165-.272-.173-.251-.182-.235-.193-.217-.2-.2-.215-.184-.225-.168-.236-.152-.248-.137-.261-.121-.273-.107-.287-.089-.3-.075-.314-.059-.327-.043-.343-.025-.349v-.5l0-.475.022-.452.04-.44.059-.426.077-.414.095-.4.114-.389.132-.376.15-.366.167-.352.186-.342.2-.33.223-.32.241-.308.26-.3.282-.29.3-.287.3-.281.307-.271.312-.262.314-.253.317-.244.321-.235.324-.226.327-.218.33-.208.334-.2.336-.191.34-.182.343-.172.346-.164.344-.151.345-.133.352-.129.349-.122.346-.114.344-.108.341-.1.338-.093.337-.085.331-.08.322-.071.313-.065.3-.057.294-.05.284-.042.274-.036.287-.03.245-.04.227-.034.226-.032.226-.03.224-.028.224-.024.223-.023.223-.02.225-.019.226-.018.227-.017.228-.017.229-.015.229-.015.231-.014.231-.013.229-.013.229-.01.228-.009.227-.007.226-.005.225,0,.225,0h2.533l.092-.63.023-.169.021-.164.018-.161.016-.158.013-.154.01-.15.009-.145.006-.139.006-.132,0-.13,0-.125,0-.121,0-.117v-.229l-.009-.418-.029-.393-.05-.362-.072-.336-.1-.308-.126-.283-.162-.255-.2-.217-.224-.174-.246-.14-.267-.113-.289-.088-.309-.066-.33-.045-.352-.027-.382-.008-.427.019-.421.059-.408.1-.393.142-.377.18-.361.221-.341.257-.316.291-.157.163-.146.167-.139.172-.131.18-.124.183-.117.192-.109.2-.1.2-.095.208-.087.216-.081.22-.073.225-.066.23-.059.238-.008.036-8.361-.047.056-.378.092-.447.117-.431Zm7.022,8.386h0l-.29.176-.274.183-.257.19-.24.2-.225.2-.208.212-.19.22-.172.227-.156.235-.135.242-.118.249-.1.257-.078.262-.057.268-.038.273-.017.279,0,.161.008.15.014.147.02.148.025.146.031.146.037.145.043.145.05.144.056.146.064.146.071.145.078.145.084.144.09.144.107.157.118.144.117.127.123.12.129.112.134.1.141.1.145.086.151.077.153.067.155.058.159.05.161.04.164.031.165.022.167.013.169,0,.124,0,.121-.005.121-.009.123-.013.122-.017.123-.02.124-.024.124-.027.119-.03.116-.03.117-.032.116-.034.115-.036.114-.038.112-.039.134-.048.426-.2.411-.235.4-.269.389-.3.378-.334.367-.364.356-.4.345-.426.17-.231.159-.233.148-.238.138-.242.127-.247.116-.25.1-.255.094-.258a14.273,14.273,0,0,0,.738-3.173c.046-.625-.874-.567-1.323-.543h-.543l-.389.011-.382.022-.377.032-.37.042-.365.053-.359.063-.354.073-.347.084-.342.093-.335.105-.33.114-.323.126-.318.135-.312.146-.3.156-.3.167Z" fill="none" stroke="#00256d" stroke-miterlimit="22.926" stroke-width="0"/>
    <path id="Path_5765" data-name="Path 5765" d="M711.812,412.005l.019-.484.029-.481.039-.474.047-.467.056-.459.065-.451.074-.444.083-.437.091-.429.1-.422.109-.414.118-.406.127-.4.135-.392.145-.384.153-.377.162-.371.17-.362.179-.355.188-.349.2-.341.205-.334.214-.327.224-.319.231-.314.241-.3.249-.3.259-.292.267-.285.276-.278.285-.271.3-.265.3-.262.3-.254.308-.248.309-.24.311-.233.313-.226.313-.219.317-.212.318-.2.318-.2.321-.191.323-.183.324-.177.326-.17.328-.162.33-.155.331-.15.333-.141.334-.135.338-.127.337-.121.34-.114.342-.107.344-.1.345-.093.347-.086.349-.079.351-.072.353-.065.355-.059.355-.051.378-.046.151-.027.133-.02.134-.019.134-.016.133-.015.135-.011.133-.01.137-.007.138-.006.139-.005.139-.005.14,0,.139,0,.14,0h.267l.43.022.43.027.422.032.413.037.4.042.4.048.385.053.377.058.368.063.358.068.35.073.34.079.331.083.322.089.313.093.3.1.294.1.285.108.277.112.268.118.258.122.249.127.24.131.232.136.222.14.214.145.205.15.2.154.188.159.179.163.17.167.162.172.318.366.3.373.276.379.255.385.234.393.214.4.193.4.173.413.152.418.132.426.112.434.092.441.07.448.052.457.03.464.011.479v.6l0,.057,0,.057,0,.056-.006.054-.008.053-.007.053-.02.105,0,.219,0,.173-.008.177-.009.181-.012.184-.015.188-.018.193-.021.195-.023.2-.027.2-.029.209-.031.212-.035.215-.037.22-.04.223-.043.225-.046.225-.05.226-.055.225-.058.226-.064.226-.067.228-.072.228-.075.228-.081.228-.084.229-.09.231-.094.23-.1.231-.1.232-.107.233-.112.236-.212.442-.225.431-.242.426-.257.422-.275.418-.292.413-.308.41-.325.4-.342.4-.359.4-.377.393-.392.388-.41.383-.428.38-.444.375-.461.371-.232.175-.238.172-.243.165-.249.16-.255.154-.262.15-.268.143-.273.138-.28.132-.287.127-.292.122-.3.116-.3.11-.311.105-.317.1-.323.094-.33.088-.336.082-.343.077-.348.072-.355.066-.362.06-.368.055-.373.049-.381.043-.386.037-.393.032-.4.026-.4.02-.412.014-.418.009-.424,0-.45,0-.44-.009-.431-.014-.422-.02-.413-.026-.4-.032-.395-.037-.384-.043-.377-.049-.367-.055-.357-.06-.349-.066-.34-.071-.33-.077-.321-.081-.311-.088-.3-.093-.293-.1-.284-.1-.274-.109-.266-.115-.257-.119-.247-.125-.238-.13-.229-.135-.219-.14-.212-.145-.2-.15-.193-.154-.184-.16-.177-.165-.166-.169-.33-.364-.306-.375-.286-.385-.264-.4-.242-.408-.221-.419-.2-.431-.179-.442-.159-.456-.138-.467-.116-.479-.1-.492-.075-.505-.053-.517-.032-.531-.01-.547v-.036Zm9.1.013h0l0,.218.008.24.013.235.018.232.023.228.028.226.034.22.039.218.044.213.05.21.055.207.061.2.066.2.071.194.078.191.086.2.1.2.129.2.145.183.164.169.179.153.2.138.208.123.222.108.234.093.246.079.256.065.27.054.281.04.294.029.3.017.314.006h.422l.307,0,.315-.021.311-.04.306-.06.3-.08.292-.1.285-.118.279-.137.27-.156.263-.174.253-.191.246-.209.238-.228.229-.244.221-.26.212-.276.2-.281.191-.281.184-.284.178-.288.169-.292.163-.3.155-.3.149-.3.142-.306.134-.308.127-.312.12-.315.112-.319.106-.321.1-.325.091-.324.039-.149.038-.149.036-.147.035-.148.033-.15.031-.148.029-.148.029-.148.026-.15.024-.149.023-.149.021-.147.019-.149.018-.149.015-.148.015-.139.012-.1.012-.1.011-.1.011-.1.009-.1.009-.1.008-.1.008-.1.006-.1.006-.1,0-.1,0-.1,0-.1,0-.1,0-.1v-.185l0-.032,0-.033,0-.034,0-.035.006-.04.007-.052.006-.052,0-.052,0-.052,0-.052,0-.05v-.1l0-.278-.011-.27-.017-.264-.023-.258-.03-.252-.037-.247-.044-.241-.051-.236-.058-.229-.065-.224-.073-.218-.08-.211-.088-.2-.094-.2-.1-.194-.112-.189-.128-.19-.144-.18-.158-.168-.171-.156-.184-.142-.2-.129-.207-.115-.217-.1-.228-.088-.237-.076-.248-.064-.256-.051-.266-.039-.275-.027-.284-.017-.3-.005-.3.009-.3.027-.294.046-.289.064-.284.082-.279.1-.272.119-.266.137-.259.154-.253.173-.246.189-.239.205-.232.222-.224.239-.219.254-.209.267-.2.273-.192.273-.186.278-.18.28-.174.284-.166.287-.161.291-.155.295-.148.3-.142.3-.135.3-.129.308-.123.31-.116.315-.111.317-.1.313-.115.337-.107.343-.1.339-.091.337-.084.334-.074.332-.066.328-.058.325-.05.315-.044.307-.037.3-.03.289-.024.278-.016.27-.01.261,0,.226Z" fill="#00256d" fill-rule="evenodd"/>
    <path id="Path_5766" data-name="Path 5766" d="M711.812,412.005l.019-.484.029-.481.039-.474.047-.467.056-.459.065-.451.074-.444.083-.437.091-.429.1-.422.109-.414.118-.406.127-.4.135-.392.145-.384.153-.377.162-.371.17-.362.179-.355.188-.349.2-.341.205-.334.214-.327.224-.319.231-.314.241-.3.249-.3.259-.292.267-.285.276-.278.285-.271.3-.265.3-.262.3-.254.308-.248.309-.24.311-.233.313-.226.313-.219.317-.212.318-.2.318-.2.321-.191.323-.183.324-.177.326-.17.328-.162.33-.155.331-.15.333-.141.334-.135.338-.127.337-.121.34-.114.342-.107.344-.1.345-.093.347-.086.349-.079.351-.072.353-.065.355-.059.355-.051.378-.046.151-.027.133-.02.134-.019.134-.016.133-.015.135-.011.133-.01.137-.007.138-.006.139-.005.139-.005.14,0,.139,0,.14,0h.267l.43.022.43.027.422.032.413.037.4.042.4.048.385.053.377.058.368.063.358.068.35.073.34.079.331.083.322.089.313.093.3.1.294.1.285.108.277.112.268.118.258.122.249.127.24.131.232.136.222.14.214.145.205.15.2.154.188.159.179.163.17.167.162.172.318.366.3.373.276.379.255.385.234.393.214.4.193.4.173.413.152.418.132.426.112.434.092.441.07.448.052.457.03.464.011.479v.6l0,.057,0,.057,0,.056-.006.054-.008.053-.007.053-.02.105,0,.219,0,.173-.008.177-.009.181-.012.184-.015.188-.018.193-.021.195-.023.2-.027.2-.029.209-.031.212-.035.215-.037.22-.04.223-.043.225-.046.225-.05.226-.055.225-.058.226-.064.226-.067.228-.072.228-.075.228-.081.228-.084.229-.09.231-.094.23-.1.231-.1.232-.107.233-.112.236-.212.442-.225.431-.242.426-.257.422-.275.418-.292.413-.308.41-.325.4-.342.4-.359.4-.377.393-.392.388-.41.383-.428.38-.444.375-.461.371-.232.175-.238.172-.243.165-.249.16-.255.154-.262.15-.268.143-.273.138-.28.132-.287.127-.292.122-.3.116-.3.11-.311.105-.317.1-.323.094-.33.088-.336.082-.343.077-.348.072-.355.066-.362.06-.368.055-.373.049-.381.043-.386.037-.393.032-.4.026-.4.02-.412.014-.418.009-.424,0-.45,0-.44-.009-.431-.014-.422-.02-.413-.026-.4-.032-.395-.037-.384-.043-.377-.049-.367-.055-.357-.06-.349-.066-.34-.071-.33-.077-.321-.081-.311-.088-.3-.093-.293-.1-.284-.1-.274-.109-.266-.115-.257-.119-.247-.125-.238-.13-.229-.135-.219-.14-.212-.145-.2-.15-.193-.154-.184-.16-.177-.165-.166-.169-.33-.364-.306-.375-.286-.385-.264-.4-.242-.408-.221-.419-.2-.431-.179-.442-.159-.456-.138-.467-.116-.479-.1-.492-.075-.505-.053-.517-.032-.531-.01-.547v-.036Zm9.1.013h0l0,.218.008.24.013.235.018.232.023.228.028.226.034.22.039.218.044.213.05.21.055.207.061.2.066.2.071.194.078.191.086.2.1.2.129.2.145.183.164.169.179.153.2.138.208.123.222.108.234.093.246.079.256.065.27.054.281.04.294.029.3.017.314.006h.422l.307,0,.315-.021.311-.04.306-.06.3-.08.292-.1.285-.118.279-.137.27-.156.263-.174.253-.191.246-.209.238-.228.229-.244.221-.26.212-.276.2-.281.191-.281.184-.284.178-.288.169-.292.163-.3.155-.3.149-.3.142-.306.134-.308.127-.312.12-.315.112-.319.106-.321.1-.325.091-.324.039-.149.038-.149.036-.147.035-.148.033-.15.031-.148.029-.148.029-.148.026-.15.024-.149.023-.149.021-.147.019-.149.018-.149.015-.148.015-.139.012-.1.012-.1.011-.1.011-.1.009-.1.009-.1.008-.1.008-.1.006-.1.006-.1,0-.1,0-.1,0-.1,0-.1,0-.1v-.185l0-.032,0-.033,0-.034,0-.035.006-.04.007-.052.006-.052,0-.052,0-.052,0-.052,0-.05v-.1l0-.278-.011-.27-.017-.264-.023-.258-.03-.252-.037-.247-.044-.241-.051-.236-.058-.229-.065-.224-.073-.218-.08-.211-.088-.2-.094-.2-.1-.194-.112-.189-.128-.19-.144-.18-.158-.168-.171-.156-.184-.142-.2-.129-.207-.115-.217-.1-.228-.088-.237-.076-.248-.064-.256-.051-.266-.039-.275-.027-.284-.017-.3-.005-.3.009-.3.027-.294.046-.289.064-.284.082-.279.1-.272.119-.266.137-.259.154-.253.173-.246.189-.239.205-.232.222-.224.239-.219.254-.209.267-.2.273-.192.273-.186.278-.18.28-.174.284-.166.287-.161.291-.155.295-.148.3-.142.3-.135.3-.129.308-.123.31-.116.315-.111.317-.1.313-.115.337-.107.343-.1.339-.091.337-.084.334-.074.332-.066.328-.058.325-.05.315-.044.307-.037.3-.03.289-.024.278-.016.27-.01.261,0,.226Z" fill="none" stroke="#00256d" stroke-miterlimit="22.926" stroke-width="0"/>
    <path id="Path_5767" data-name="Path 5767" d="M635.571,412.005l.021-.483.029-.482.039-.474.047-.467.056-.459.065-.451.074-.444.082-.437.092-.429.1-.421.109-.415.118-.406.127-.4.135-.392.144-.384.153-.377.162-.37.171-.363.179-.355.188-.349.2-.341.205-.334.214-.327.223-.319.232-.313.241-.306.249-.3.259-.292.267-.285.276-.278.285-.271.3-.265.3-.262.306-.254.308-.248.308-.24.312-.233.312-.226.315-.219.315-.212.318-.2.319-.2.321-.191.323-.183.325-.177.325-.17.328-.162.329-.155.331-.15.333-.141.334-.135.337-.127.338-.121.34-.114.342-.107.344-.1.345-.093.347-.086.349-.079.351-.072.353-.065.354-.059.356-.051.378-.046.151-.027.133-.02.134-.019.134-.016.133-.015.134-.011.134-.01.137-.007.137-.006.139-.005.14-.005.14,0,.139,0,.14,0h.268l.428.022.431.027.421.032.413.037.4.042.395.048.386.053.377.058.368.063.358.068.349.073.341.079.33.083.323.089.313.093.3.1.294.1.286.108.277.112.267.118.258.122.25.127.241.131.231.136.222.14.214.145.2.15.2.154.188.159.179.162.169.168.163.172.318.366.3.373.276.379.256.385.234.393.214.4.193.4.173.413.152.418.132.426.112.434.092.441.07.448.052.457.03.464.011.479v.6l0,.058,0,.057-.005.056-.005.054-.008.053-.008.053-.019.105,0,.219,0,.173-.007.177-.009.181-.013.184-.015.188-.017.193-.021.195-.023.2-.027.2-.029.209-.032.212-.034.215-.038.22-.04.223-.042.225-.047.225-.05.226-.054.225-.058.226-.064.226-.068.228-.071.228-.076.228-.08.228-.085.229-.09.231-.093.23-.1.231-.1.232-.106.233-.113.236-.212.442-.225.431-.241.426-.258.422-.275.418-.291.413-.308.409-.325.4-.342.4-.36.4-.376.393-.393.388-.41.383-.427.38-.444.375-.461.371-.232.175-.238.172-.243.165-.249.16-.256.154-.262.15-.268.143-.273.138-.28.132-.286.127-.292.122-.3.116-.3.11-.311.105-.318.1-.322.094-.33.088-.337.082-.342.077-.349.072-.355.066-.361.06-.368.055-.374.049-.38.043-.386.037-.393.032-.4.026-.406.02-.411.014-.418.009-.424,0-.45,0-.44-.009-.432-.014-.421-.02-.414-.026-.4-.032-.394-.037-.385-.043-.376-.049-.367-.055-.357-.06-.349-.066-.339-.071-.331-.077-.321-.081-.312-.088-.3-.093-.294-.1-.283-.1-.276-.109-.264-.115-.257-.119-.247-.125-.238-.13-.229-.135-.22-.14-.212-.145-.2-.15-.193-.154-.185-.16-.176-.166-.168-.168-.328-.364-.307-.375-.285-.385-.264-.4-.242-.408-.222-.419-.2-.431-.18-.442-.158-.455-.138-.468-.117-.479-.1-.492-.075-.505-.053-.517-.033-.531-.011-.548v-.035Zm9.1.013h0l0,.218.008.24.012.235.018.232.024.228.028.226.033.22.04.218.044.213.049.21.056.207.061.2.066.2.072.194.076.191.087.2.1.2.127.2.146.183.164.169.179.153.194.138.209.123.222.108.234.093.245.079.257.065.27.054.281.04.293.029.3.017.314.006h.422l.307,0,.315-.021.31-.04.306-.06.3-.08.291-.1.285-.118.279-.137.271-.156.262-.174.254-.191.246-.209.237-.228.23-.244.221-.26.211-.276.2-.281.191-.281.184-.284.177-.288.17-.292.162-.3.156-.3.149-.3.141-.307.134-.308.128-.312.12-.315.112-.319.106-.321.1-.325.09-.324.04-.149.038-.149.036-.148.034-.148.033-.149.031-.148.03-.147.028-.148.027-.151.024-.149.023-.149.021-.147.019-.149.018-.149.015-.148.015-.139.012-.1.012-.1.011-.1.011-.1.009-.1.009-.1.008-.1.007-.1.006-.1.006-.1.005-.1,0-.1,0-.1,0-.1v-.249l0-.031,0-.032,0-.033,0-.034,0-.033.006-.041.007-.053.007-.052.005-.052,0-.052,0-.052,0-.05v-.1l0-.278-.011-.27-.017-.264-.023-.258-.031-.252-.036-.247-.044-.241-.051-.236-.058-.229-.065-.224-.074-.218-.079-.211-.088-.2-.094-.2-.1-.194-.112-.19-.129-.189-.144-.18-.158-.168-.171-.156-.184-.142-.195-.129-.207-.115-.218-.1-.227-.088-.238-.076-.247-.064-.257-.051-.265-.039-.275-.027-.284-.017-.3-.005-.3.009-.3.027-.294.046-.29.064-.284.082-.278.1-.273.119-.265.137-.26.154-.253.173-.245.189-.239.205-.232.222-.224.239-.219.254-.209.267-.2.273-.191.273-.187.278-.179.28-.174.284-.167.287-.16.291-.155.295-.148.3-.142.3-.136.3-.128.308-.123.31-.116.315-.111.317-.1.313-.114.337-.108.343-.1.339-.091.337-.084.334-.074.332-.067.328-.057.324-.051.316-.044.307-.036.3-.03.289-.024.278-.017.27-.01.261,0,.226Z" fill="#00256d" fill-rule="evenodd"/>
    <path id="Path_5768" data-name="Path 5768" d="M635.571,412.005l.021-.483.029-.482.039-.474.047-.467.056-.459.065-.451.074-.444.082-.437.092-.429.1-.421.109-.415.118-.406.127-.4.135-.392.144-.384.153-.377.162-.37.171-.363.179-.355.188-.349.2-.341.205-.334.214-.327.223-.319.232-.313.241-.306.249-.3.259-.292.267-.285.276-.278.285-.271.3-.265.3-.262.306-.254.308-.248.308-.24.312-.233.312-.226.315-.219.315-.212.318-.2.319-.2.321-.191.323-.183.325-.177.325-.17.328-.162.329-.155.331-.15.333-.141.334-.135.337-.127.338-.121.34-.114.342-.107.344-.1.345-.093.347-.086.349-.079.351-.072.353-.065.354-.059.356-.051.378-.046.151-.027.133-.02.134-.019.134-.016.133-.015.134-.011.134-.01.137-.007.137-.006.139-.005.14-.005.14,0,.139,0,.14,0h.268l.428.022.431.027.421.032.413.037.4.042.395.048.386.053.377.058.368.063.358.068.349.073.341.079.33.083.323.089.313.093.3.1.294.1.286.108.277.112.267.118.258.122.25.127.241.131.231.136.222.14.214.145.2.15.2.154.188.159.179.162.169.168.163.172.318.366.3.373.276.379.256.385.234.393.214.4.193.4.173.413.152.418.132.426.112.434.092.441.07.448.052.457.03.464.011.479v.6l0,.058,0,.057-.005.056-.005.054-.008.053-.008.053-.019.105,0,.219,0,.173-.007.177-.009.181-.013.184-.015.188-.017.193-.021.195-.023.2-.027.2-.029.209-.032.212-.034.215-.038.22-.04.223-.042.225-.047.225-.05.226-.054.225-.058.226-.064.226-.068.228-.071.228-.076.228-.08.228-.085.229-.09.231-.093.23-.1.231-.1.232-.106.233-.113.236-.212.442-.225.431-.241.426-.258.422-.275.418-.291.413-.308.409-.325.4-.342.4-.36.4-.376.393-.393.388-.41.383-.427.38-.444.375-.461.371-.232.175-.238.172-.243.165-.249.16-.256.154-.262.15-.268.143-.273.138-.28.132-.286.127-.292.122-.3.116-.3.11-.311.105-.318.1-.322.094-.33.088-.337.082-.342.077-.349.072-.355.066-.361.06-.368.055-.374.049-.38.043-.386.037-.393.032-.4.026-.406.02-.411.014-.418.009-.424,0-.45,0-.44-.009-.432-.014-.421-.02-.414-.026-.4-.032-.394-.037-.385-.043-.376-.049-.367-.055-.357-.06-.349-.066-.339-.071-.331-.077-.321-.081-.312-.088-.3-.093-.294-.1-.283-.1-.276-.109-.264-.115-.257-.119-.247-.125-.238-.13-.229-.135-.22-.14-.212-.145-.2-.15-.193-.154-.185-.16-.176-.166-.168-.168-.328-.364-.307-.375-.285-.385-.264-.4-.242-.408-.222-.419-.2-.431-.18-.442-.158-.455-.138-.468-.117-.479-.1-.492-.075-.505-.053-.517-.033-.531-.011-.548v-.035Zm9.1.013h0l0,.218.008.24.012.235.018.232.024.228.028.226.033.22.04.218.044.213.049.21.056.207.061.2.066.2.072.194.076.191.087.2.1.2.127.2.146.183.164.169.179.153.194.138.209.123.222.108.234.093.245.079.257.065.27.054.281.04.293.029.3.017.314.006h.422l.307,0,.315-.021.31-.04.306-.06.3-.08.291-.1.285-.118.279-.137.271-.156.262-.174.254-.191.246-.209.237-.228.23-.244.221-.26.211-.276.2-.281.191-.281.184-.284.177-.288.17-.292.162-.3.156-.3.149-.3.141-.307.134-.308.128-.312.12-.315.112-.319.106-.321.1-.325.09-.324.04-.149.038-.149.036-.148.034-.148.033-.149.031-.148.03-.147.028-.148.027-.151.024-.149.023-.149.021-.147.019-.149.018-.149.015-.148.015-.139.012-.1.012-.1.011-.1.011-.1.009-.1.009-.1.008-.1.007-.1.006-.1.006-.1.005-.1,0-.1,0-.1,0-.1v-.249l0-.031,0-.032,0-.033,0-.034,0-.033.006-.041.007-.053.007-.052.005-.052,0-.052,0-.052,0-.05v-.1l0-.278-.011-.27-.017-.264-.023-.258-.031-.252-.036-.247-.044-.241-.051-.236-.058-.229-.065-.224-.074-.218-.079-.211-.088-.2-.094-.2-.1-.194-.112-.19-.129-.189-.144-.18-.158-.168-.171-.156-.184-.142-.195-.129-.207-.115-.218-.1-.227-.088-.238-.076-.247-.064-.257-.051-.265-.039-.275-.027-.284-.017-.3-.005-.3.009-.3.027-.294.046-.29.064-.284.082-.278.1-.273.119-.265.137-.26.154-.253.173-.245.189-.239.205-.232.222-.224.239-.219.254-.209.267-.2.273-.191.273-.187.278-.179.28-.174.284-.167.287-.16.291-.155.295-.148.3-.142.3-.136.3-.128.308-.123.31-.116.315-.111.317-.1.313-.114.337-.108.343-.1.339-.091.337-.084.334-.074.332-.067.328-.057.324-.051.316-.044.307-.036.3-.03.289-.024.278-.017.27-.01.261,0,.226Z" fill="none" stroke="#00256d" stroke-miterlimit="22.926" stroke-width="0"/>
    <path id="Path_5769" data-name="Path 5769" d="M487.76,457.517a11.876,11.876,0,0,1-2.525.909,11.453,11.453,0,0,1-2.643.31,6.535,6.535,0,0,1-4.694-1.621,6.652,6.652,0,0,1,.06-8.962,7,7,0,0,1,4.933-1.63,5.658,5.658,0,0,1,3.31.879,3.27,3.27,0,0,1,1.421,2.427h-1.649A2.2,2.2,0,0,0,484.9,448.4a4.291,4.291,0,0,0-2.193-.5,4.806,4.806,0,0,0-3.537,1.287,4.7,4.7,0,0,0-1.3,3.495,4.579,4.579,0,0,0,1.293,3.445,4.884,4.884,0,0,0,3.559,1.258,9.584,9.584,0,0,0,1.913-.181,6.511,6.511,0,0,0,1.583-.526V453.7h-3.465v-1.347h5.006v5.16Zm15.333-5.552h2.951a5.828,5.828,0,0,0,2.808-.429,1.766,1.766,0,0,0,.636-1.576,1.6,1.6,0,0,0-.656-1.47,6.181,6.181,0,0,0-2.8-.409h-2.936v3.884Zm-1.51,6.571V446.7h5.045a12.812,12.812,0,0,1,2.145.131,3.131,3.131,0,0,1,1.168.447,2.463,2.463,0,0,1,.861,1.044,3.691,3.691,0,0,1,.3,1.539,2.828,2.828,0,0,1-.61,1.911,3.289,3.289,0,0,1-1.874.978,1.824,1.824,0,0,1,1.312.477,4.262,4.262,0,0,1,.683,1.956l.282,1.58c.1.5.183.885.259,1.148a2.984,2.984,0,0,0,.254.624h-1.693a3.309,3.309,0,0,1-.2-.6c-.062-.249-.126-.592-.193-1.033l-.314-1.972a1.64,1.64,0,0,0-.735-1.251,4.506,4.506,0,0,0-2.125-.354h-3.059v5.207ZM524.705,446.7h1.573v6.234a10.073,10.073,0,0,0,.155,2.01,2.922,2.922,0,0,0,.505,1.175,2.985,2.985,0,0,0,1.219.931,4.133,4.133,0,0,0,1.685.338,4.052,4.052,0,0,0,1.662-.343,2.993,2.993,0,0,0,1.211-.926,2.937,2.937,0,0,0,.506-1.175,10.087,10.087,0,0,0,.154-2.01V446.7h1.564v6.908a9.233,9.233,0,0,1-.165,1.966,3.492,3.492,0,0,1-.554,1.269,4.171,4.171,0,0,1-1.806,1.426,6.4,6.4,0,0,1-2.6.515,6.271,6.271,0,0,1-2.58-.517,4.185,4.185,0,0,1-1.79-1.424,3.872,3.872,0,0,1-.563-1.3,8.691,8.691,0,0,1-.173-1.933V446.7Zm25.96,5.264h3.388a4.464,4.464,0,0,0,2.415-.421,2.4,2.4,0,0,0,0-3.046,4.514,4.514,0,0,0-2.415-.417h-3.388v3.884Zm-1.542,6.571V446.7h5.046a12.4,12.4,0,0,1,2.069.123,3.169,3.169,0,0,1,1.105.422,2.636,2.636,0,0,1,.939,1.085,3.622,3.622,0,0,1,.324,1.58,3.2,3.2,0,0,1-.966,2.643,5.626,5.626,0,0,1-3.425.775h-3.55v5.207Zm19.894,0,5.84-11.835H576.8l5.7,11.835h-1.817l-1.481-3.152h-6.968l-1.554,3.152ZM572.9,454h5.665l-2.746-5.954L572.9,454Zm33.9,4.533V446.7h1.541v5.144l6.078-5.144h2.07l-6.261,5.231,6.876,6.6H614.84l-6.5-6.291v6.291Zm20.4,0,5.84-11.835h1.947l5.7,11.835h-1.816l-1.482-3.152h-6.968l-1.554,3.152ZM631.076,454h5.665L634,448.049,631.076,454Zm23.546-2.038h3.389a4.469,4.469,0,0,0,2.415-.421,2.4,2.4,0,0,0,0-3.046,4.519,4.519,0,0,0-2.415-.417h-3.389v3.884Zm-1.541,6.571V446.7h5.045a12.4,12.4,0,0,1,2.07.123,3.155,3.155,0,0,1,1.1.422,2.621,2.621,0,0,1,.939,1.085,3.609,3.609,0,0,1,.325,1.58,3.2,3.2,0,0,1-.966,2.643,5.627,5.627,0,0,1-3.425.775h-3.551v5.207Zm22.5,0V446.7h1.593v11.835Zm14.435-10.383V446.7h11.069v1.452H696.34v10.383h-1.586V448.153ZM711.5,458.536l5.84-11.835h1.947l5.7,11.835h-1.816l-1.481-3.152h-6.968l-1.554,3.152ZM715.375,454h5.666l-2.745-5.954L715.375,454Zm22.074,4.533v-4.944l-1.795,1.293v-1.227l1.795-1.3V446.7h1.58v4.654l2.992-2.151v1.244l-2.992,2.191v4.437h6.437v1.46Zm30.376-5.916a4.718,4.718,0,0,0-1.253-3.385,4.245,4.245,0,0,0-3.216-1.315,4.358,4.358,0,0,0-3.276,1.307,5.174,5.174,0,0,0-.006,6.77,4.335,4.335,0,0,0,3.266,1.3,4.282,4.282,0,0,0,3.239-1.3,4.676,4.676,0,0,0,1.246-3.377Zm-4.5,6.1a7.074,7.074,0,0,1-2.468-.4,5.459,5.459,0,0,1-1.918-1.23,6.156,6.156,0,0,1-1.348-2.024,6.421,6.421,0,0,1-.468-2.446,6.538,6.538,0,0,1,.468-2.471,5.874,5.874,0,0,1,1.348-2.013,5.42,5.42,0,0,1,1.925-1.232,7.035,7.035,0,0,1,2.461-.4,7.108,7.108,0,0,1,2.467.4,5.46,5.46,0,0,1,1.926,1.23,5.915,5.915,0,0,1,1.353,2.013,6.7,6.7,0,0,1,0,4.928,5.918,5.918,0,0,1-1.356,2.013,5.539,5.539,0,0,1-1.929,1.23,7.078,7.078,0,0,1-2.464.4ZM781.449,446.7H783.1l3.234,10.222,3.512-10.222h2.061l3.373,10.31L798.6,446.7h1.466l-3.834,11.835h-2.007l-3.412-10.367-3.556,10.367h-1.978L781.449,446.7Zm29.377,11.835,5.84-11.835h1.947l5.7,11.835h-1.816l-1.481-3.152h-6.968l-1.554,3.152ZM814.7,454h5.666l-2.745-5.954L814.7,454Z" fill="#00256d"/>
    <path id="Path_5770" data-name="Path 5770" d="M487.76,457.517a11.876,11.876,0,0,1-2.525.909,11.453,11.453,0,0,1-2.643.31,6.535,6.535,0,0,1-4.694-1.621,6.652,6.652,0,0,1,.06-8.962,7,7,0,0,1,4.933-1.63,5.658,5.658,0,0,1,3.31.879,3.27,3.27,0,0,1,1.421,2.427h-1.649A2.2,2.2,0,0,0,484.9,448.4a4.291,4.291,0,0,0-2.193-.5,4.806,4.806,0,0,0-3.537,1.287,4.7,4.7,0,0,0-1.3,3.495,4.579,4.579,0,0,0,1.293,3.445,4.884,4.884,0,0,0,3.559,1.258,9.584,9.584,0,0,0,1.913-.181,6.511,6.511,0,0,0,1.583-.526V453.7h-3.465v-1.347h5.006v5.16Zm15.333-5.552h2.951a5.828,5.828,0,0,0,2.808-.429,1.766,1.766,0,0,0,.636-1.576,1.6,1.6,0,0,0-.656-1.47,6.181,6.181,0,0,0-2.8-.409h-2.936v3.884Zm-1.51,6.571V446.7h5.045a12.812,12.812,0,0,1,2.145.131,3.131,3.131,0,0,1,1.168.447,2.463,2.463,0,0,1,.861,1.044,3.691,3.691,0,0,1,.3,1.539,2.828,2.828,0,0,1-.61,1.911,3.289,3.289,0,0,1-1.874.978,1.824,1.824,0,0,1,1.312.477,4.262,4.262,0,0,1,.683,1.956l.282,1.58c.1.5.183.885.259,1.148a2.984,2.984,0,0,0,.254.624h-1.693a3.309,3.309,0,0,1-.2-.6c-.062-.249-.126-.592-.193-1.033l-.314-1.972a1.64,1.64,0,0,0-.735-1.251,4.506,4.506,0,0,0-2.125-.354h-3.059v5.207ZM524.705,446.7h1.573v6.234a10.073,10.073,0,0,0,.155,2.01,2.922,2.922,0,0,0,.505,1.175,2.985,2.985,0,0,0,1.219.931,4.133,4.133,0,0,0,1.685.338,4.052,4.052,0,0,0,1.662-.343,2.993,2.993,0,0,0,1.211-.926,2.937,2.937,0,0,0,.506-1.175,10.087,10.087,0,0,0,.154-2.01V446.7h1.564v6.908a9.233,9.233,0,0,1-.165,1.966,3.492,3.492,0,0,1-.554,1.269,4.171,4.171,0,0,1-1.806,1.426,6.4,6.4,0,0,1-2.6.515,6.271,6.271,0,0,1-2.58-.517,4.185,4.185,0,0,1-1.79-1.424,3.872,3.872,0,0,1-.563-1.3,8.691,8.691,0,0,1-.173-1.933V446.7Zm25.96,5.264h3.388a4.464,4.464,0,0,0,2.415-.421,2.4,2.4,0,0,0,0-3.046,4.514,4.514,0,0,0-2.415-.417h-3.388v3.884Zm-1.542,6.571V446.7h5.046a12.4,12.4,0,0,1,2.069.123,3.169,3.169,0,0,1,1.105.422,2.636,2.636,0,0,1,.939,1.085,3.622,3.622,0,0,1,.324,1.58,3.2,3.2,0,0,1-.966,2.643,5.626,5.626,0,0,1-3.425.775h-3.55v5.207Zm19.894,0,5.84-11.835H576.8l5.7,11.835h-1.817l-1.481-3.152h-6.968l-1.554,3.152ZM572.9,454h5.665l-2.746-5.954L572.9,454Zm33.9,4.533V446.7h1.541v5.144l6.078-5.144h2.07l-6.261,5.231,6.876,6.6H614.84l-6.5-6.291v6.291Zm20.4,0,5.84-11.835h1.947l5.7,11.835h-1.816l-1.482-3.152h-6.968l-1.554,3.152ZM631.076,454h5.665L634,448.049,631.076,454Zm23.546-2.038h3.389a4.469,4.469,0,0,0,2.415-.421,2.4,2.4,0,0,0,0-3.046,4.519,4.519,0,0,0-2.415-.417h-3.389v3.884Zm-1.541,6.571V446.7h5.045a12.4,12.4,0,0,1,2.07.123,3.155,3.155,0,0,1,1.1.422,2.621,2.621,0,0,1,.939,1.085,3.609,3.609,0,0,1,.325,1.58,3.2,3.2,0,0,1-.966,2.643,5.627,5.627,0,0,1-3.425.775h-3.551v5.207Zm22.5,0V446.7h1.593v11.835Zm14.435-10.383V446.7h11.069v1.452H696.34v10.383h-1.586V448.153ZM711.5,458.536l5.84-11.835h1.947l5.7,11.835h-1.816l-1.481-3.152h-6.968l-1.554,3.152ZM715.375,454h5.666l-2.745-5.954L715.375,454Zm22.074,4.533v-4.944l-1.795,1.293v-1.227l1.795-1.3V446.7h1.58v4.654l2.992-2.151v1.244l-2.992,2.191v4.437h6.437v1.46Zm30.376-5.916a4.718,4.718,0,0,0-1.253-3.385,4.245,4.245,0,0,0-3.216-1.315,4.358,4.358,0,0,0-3.276,1.307,5.174,5.174,0,0,0-.006,6.77,4.335,4.335,0,0,0,3.266,1.3,4.282,4.282,0,0,0,3.239-1.3,4.676,4.676,0,0,0,1.246-3.377Zm-4.5,6.1a7.074,7.074,0,0,1-2.468-.4,5.459,5.459,0,0,1-1.918-1.23,6.156,6.156,0,0,1-1.348-2.024,6.421,6.421,0,0,1-.468-2.446,6.538,6.538,0,0,1,.468-2.471,5.874,5.874,0,0,1,1.348-2.013,5.42,5.42,0,0,1,1.925-1.232,7.035,7.035,0,0,1,2.461-.4,7.108,7.108,0,0,1,2.467.4,5.46,5.46,0,0,1,1.926,1.23,5.915,5.915,0,0,1,1.353,2.013,6.7,6.7,0,0,1,0,4.928,5.918,5.918,0,0,1-1.356,2.013,5.539,5.539,0,0,1-1.929,1.23,7.078,7.078,0,0,1-2.464.4ZM781.449,446.7H783.1l3.234,10.222,3.512-10.222h2.061l3.373,10.31L798.6,446.7h1.466l-3.834,11.835h-2.007l-3.412-10.367-3.556,10.367h-1.978L781.449,446.7Zm29.377,11.835,5.84-11.835h1.947l5.7,11.835h-1.816l-1.481-3.152h-6.968l-1.554,3.152ZM814.7,454h5.666l-2.745-5.954L814.7,454Z" fill="none" stroke="#00256d" stroke-miterlimit="22.926" stroke-width="0"/>
  </g>
</svg>