<svg xmlns="http://www.w3.org/2000/svg" xmlns:xlink="http://www.w3.org/1999/xlink" xmlns:a="http://ns.adobe.com/AdobeSVGViewerExtensions/3.0/" version="1.1" x="0px" y="0px" width="502px" height="107px" viewBox="-0.592 -0.704 502 107" enable-background="new -0.592 -0.704 502 107" xml:space="preserve"><div xmlns="" id="in-page-channel-node-id" data-channel-name="in_page_channel_dUSTeG"/>
<defs>
</defs>
<path fill-rule="evenodd" clip-rule="evenodd" fill="#F04E30" d="M364.457,104.797V8.807c2.356-1.67,7.104-4.32,14.689-6.042  c7.181-1.63,9.772-1.469,11.668-1.631v103.664H364.457z M474.627,104.797V8.807c2.356-1.67,7.104-4.32,14.688-6.042  c7.182-1.63,9.773-1.469,11.668-1.631v103.664H474.627z M254.455,8.807c2.351-1.666,7.077-4.309,14.634-6.031  c7.23-1.642,10.388-1.635,11.72-1.643v84.224c-1.949,1.363-6.085,4.019-8.768,5.585c-3.626,2.117-6.918,3.945-10.521,5.749  c-3.571,1.788-7.104,3.28-11.103,4.666c-7.964,2.761-17.181,4.596-29.995,4.596c-18.136,0-36.889-9.964-36.889-31.037V0.526  c14.218,3.077,26.338,12.987,26.338,29.904v35.882c0,14.768,8.972,19.118,24.041,18.878c5.806,0,14.442-2.061,20.543-5.404V8.807z   M312.277,28.696c4.905-7.034,8.553-14.166,11.254-19.88c0.013,0.011,4.745-3.697,15.373-6.08  c6.875-1.541,17.163-1.603,17.163-1.603c-0.542,1.757-2.465,6.03-4.535,9.967c-1.387,2.637-3.347,6.049-5.68,9.633  c-2.628,4.019-5.794,8.255-7.908,11.01c-9.128,11.895-15.205,17.741-19.883,22.343l-2.146,2.071  c3.564,0.812,6.831,3.362,12.762,9.396c9.476,9.639,16.474,19.797,21.93,27.683c3.836,5.544,5.755,9.011,7.075,11.566h-30.831  c-0.544-0.967-9.024-15.415-16.032-23.307c-1.584-1.784-4.215-4.38-5.459-5.339c-2.174-1.676-5.541-1.577-8.215-0.866  c-3.129,0.83-7.04,3.471-7.04,3.471V54.607c2.043-1.881,5.826-6.189,9.26-9.943C305.098,38.394,310.246,31.607,312.277,28.696z   M144.72,30.43c0-16.917,12.175-26.828,26.394-29.904v84.831c-1.95,1.363-6.131,4.019-8.814,5.585  c-3.626,2.117-6.919,3.945-10.522,5.749c-3.571,1.788-7.103,3.28-11.103,4.666c-7.964,2.761-17.181,4.596-29.995,4.596  c-18.136,0-36.896-9.964-36.896-31.037V0.828c14.218,3.076,26.374,13.065,26.374,29.983v35.451c0,14.768,8.942,19.168,24.011,18.928  c5.806,0,14.45-2.061,20.551-5.404V30.43z M422.293,28.696c4.905-7.034,8.553-14.166,11.254-19.88  c0.013,0.011,4.745-3.697,15.372-6.08c6.876-1.541,17.164-1.603,17.164-1.603c-0.542,1.757-2.465,6.03-4.535,9.967  c-1.387,2.637-3.346,6.049-5.68,9.633c-2.628,4.019-5.794,8.255-7.908,11.01c-9.128,11.895-15.204,17.741-19.883,22.343  l-2.146,2.071c3.564,0.812,6.831,3.362,12.762,9.396c9.476,9.639,16.474,19.797,21.93,27.683c3.836,5.544,5.755,9.011,7.075,11.566  h-30.831c-0.544-0.967-9.024-15.415-16.032-23.307c-1.585-1.784-4.215-4.38-5.46-5.339c-2.173-1.676-5.539-1.577-8.214-0.866  c-3.129,0.83-7.04,3.471-7.04,3.471V54.607c2.044-1.881,5.826-6.189,9.259-9.943C415.113,38.394,420.262,31.607,422.293,28.696z   M64.303,26.691c-0.059-0.031-0.11-0.061-0.166-0.096c-4.119-2.645-9.904-3.575-17.122-3.46c-5.809,0-14.521,2.063-20.622,5.409  v76.257H0V20.034c1.95-1.364,10.753-6.522,18.168-10.386c3.542-1.845,8.205-3.722,12.204-5.108C38.336,1.779,47.69,0,60.505,0  c1.325,0,2.653,0.053,3.977,0.16v26.453C64.482,26.612,64.474,26.748,64.303,26.691z"/>
</svg>