<svg width="201" height="24" viewBox="0 0 201 24" fill="none" xmlns="http://www.w3.org/2000/svg" class="logo"><g clip-path="url(#clip0_6776_3)"><path d="M29.5901 1.17163L32.3117 3.89317H38.3852L33.3992 11.4588L22.3765 0.436073L11.359 11.4588L6.37298 3.89317H12.4465L15.1681 1.17163H0.577881L15.2994 23.5114L22.3817 16.4448L29.464 23.5114L44.1803 1.17163H29.5849H29.5901ZM28.9334 18.2364L22.3817 11.6848L15.8301 18.2364L13.2504 14.317L22.3765 5.18564L31.5131 14.3222L28.9334 18.2417V18.2364Z" fill="url(#paint0_linear_6776_3)"></path><path d="M14.627 1.48161L12.9037 2.40631L11.9475 2.61646H3.66203L8.59548 10.282L7.05607 10.7023L1.14014 1.48161H9.27849H14.627Z" fill="url(#paint1_linear_6776_3)"></path><path d="M30.1313 1.48161L31.8546 2.40631L32.8109 2.61646H41.0963L36.1629 10.282L37.7023 10.7023L43.613 1.48161H35.4799H30.1313Z" fill="url(#paint2_linear_6776_3)"></path><path d="M11.9476 2.61646L12.9038 2.40631L15.1735 1.17163L12.452 3.89317H6.33111C5.9791 3.89317 6.18925 4.18214 6.18925 4.18214L8.80572 8.14886H7.21903L3.66211 2.61646H11.9476Z" fill="url(#paint3_linear_6776_3)"></path><path d="M32.8109 2.61646L31.8547 2.40631L29.585 1.17163L32.3065 3.89317H38.4221C38.7688 3.89317 38.5639 4.18214 38.5639 4.18214L35.9475 8.14886H37.5342L41.0963 2.61646H32.8109V2.61646Z" fill="url(#paint4_linear_6776_3)"></path><path d="M8.76369 8.08056L12.1052 13.1506L11.0859 14.1489L7.177 8.08056H8.76369Z" fill="url(#paint5_linear_6776_3)"></path><path d="M35.9948 8.08056L32.6533 13.1506L33.6726 14.1489L37.5815 8.08056H35.9948Z" fill="url(#paint6_linear_6776_3)"></path><path d="M33.4467 11.9475L22.3766 0.877411L11.3118 11.9475L11.1069 14.1226L22.3766 3.15762L33.6516 14.1226L33.4467 11.9475Z" fill="url(#paint7_linear_6776_3)"></path><path d="M22.3765 3.15762L14.8896 10.4448L22.3765 5.18564L29.8686 10.4448L22.3765 3.15762Z" fill="url(#paint8_linear_6776_3)"></path><path d="M29.401 9.99299C27.8721 8.50613 22.7916 4.99124 22.3765 4.99124C21.9615 4.99124 16.8809 8.50613 15.352 9.99299L11.1016 14.1278L13.014 14.5429L22.3765 5.18564L31.7338 14.5429L33.6462 14.1278L29.3958 9.99299H29.401Z" fill="url(#paint9_linear_6776_3)"></path><path d="M22.3765 12.1208L15.7776 18.725L16.4711 19.7706L22.3765 14.2487L28.2872 19.7706L28.9807 18.725L22.3765 12.1208Z" fill="url(#paint10_linear_6776_3)"></path><path d="M36.1996 10.2242L29.3904 20.8004L22.3764 14.2487L15.3677 20.8004L8.55857 10.2242L7.01392 10.6392L15.2994 23.5114L22.3764 16.4448L29.464 23.5114L37.7442 10.6392L36.1996 10.2242Z" fill="url(#paint11_linear_6776_3)"></path><path d="M12.105 13.1506L11.0857 14.1489L15.3677 20.8003L18.3046 18.0578L17.4009 17.1016L15.7775 18.725L12.105 13.1506Z" fill="url(#paint12_linear_6776_3)"></path><path d="M32.6533 13.1506L33.6725 14.1489L29.3906 20.8003L26.4536 18.0578L27.3573 17.1016L28.9808 18.725L32.6533 13.1506Z" fill="url(#paint13_linear_6776_3)"></path><path d="M22.3766 16.2189C21.5255 16.4921 18.0841 18.5201 17.6638 18.9352V21.1471L22.3766 16.4448L27.0894 21.1471V18.9352C26.6691 18.5149 23.2277 16.4921 22.3766 16.2189V16.2189Z" fill="url(#paint14_linear_6776_3)"></path><path d="M31.5078 20.3275L29.4587 23.5114C29.4587 23.049 30.5621 21.1576 31.5078 19.6182V20.3275V20.3275Z" fill="url(#paint15_linear_6776_3)"></path><path d="M13.2505 20.3275L15.2995 23.5114C15.2995 23.049 14.1962 21.1576 13.2505 19.6182V20.3275V20.3275Z" fill="url(#paint16_linear_6776_3)"></path><path d="M13.2452 14.317L15.8249 18.2364L22.3765 11.6848L28.9282 18.2364L31.5079 14.317L22.3765 5.18564L13.2452 14.317ZM28.8809 17.7478L22.3765 11.2382L15.8722 17.7478L13.6392 14.3538L22.3765 5.62172L31.1138 14.359L28.8809 17.7531V17.7478ZM28.8494 0.861646L32.1856 4.20315H37.8074L33.3415 10.9755L22.3765 0L11.4116 10.9755L6.95096 4.20315H12.5727L15.9089 0.861646H0L15.2469 24L22.3765 16.8704L29.5114 24L44.7583 0.861646H28.8494V0.861646ZM29.4588 23.5114L22.3765 16.4448L15.2942 23.5114L0.577933 1.17163H15.1681L12.4466 3.89317H6.37303L11.359 11.4588L22.3765 0.436077L33.394 11.4536L38.38 3.88792H32.3065L29.5849 1.16637H44.1804L29.4588 23.5061V23.5114Z" fill="#1D1D1B"></path><path d="M4.72336 2.69527H11.1962C12.2628 2.69527 12.6305 2.65849 13.5342 2.14886C13.5342 2.14886 14.4221 1.60771 15.1682 1.16637L13.3293 2.08581C12.7566 2.34326 12.3573 2.45359 11.7006 2.45359H4.51846C3.46767 2.45359 3.21023 2.46935 4.07187 3.76707L10.9808 14.2697L11.1542 14.1278C11.1542 14.1278 4.57625 3.92995 4.35559 3.58844C4.08238 3.14711 4.02984 2.73205 4.72336 2.69527V2.69527Z" fill="url(#paint17_linear_6776_3)"></path><path d="M40.0349 2.69527H33.5621C32.4955 2.69527 32.1277 2.65849 31.2241 2.14886C31.2241 2.14886 30.3361 1.60771 29.5901 1.16637L31.429 2.08581C32.0016 2.34326 32.3957 2.45359 33.0577 2.45359H40.2398C41.2906 2.45359 41.5481 2.46935 40.6864 3.76707L33.7775 14.2697L33.6041 14.1278C33.6041 14.1278 40.1873 3.92469 40.4027 3.58319C40.6759 3.14186 40.7284 2.72679 40.0349 2.69002V2.69527Z" fill="url(#paint18_linear_6776_3)"></path><path d="M17.5534 18.6778C15.5832 20.5324 15.6147 20.7583 14.3537 18.9562L11.1541 14.1331L10.9807 14.275L14.9107 20.4116C15.3678 21.1103 15.4361 21.1366 16.0455 20.5429L17.7583 18.8406L19.7548 16.8546L19.5394 16.6497L17.5586 18.6725L17.5534 18.6778ZM33.6042 14.1331L30.4045 18.9562C29.1436 20.7636 29.1751 20.5377 27.2049 18.6778L25.2241 16.655L25.0087 16.8599L27.0052 18.8459L28.7128 20.5482C29.3222 21.1419 29.3853 21.1156 29.8476 20.4168L33.7776 14.2802L33.6042 14.1384V14.1331Z" fill="url(#paint19_linear_6776_3)"></path><path d="M23.133 14.5219C23.133 14.5219 22.7074 14.0543 22.3817 14.0543C22.0559 14.0543 21.6304 14.5219 21.6304 14.5219L19.5393 16.655L19.7547 16.8599L20.9316 15.6883C21.9088 14.7373 22.0192 14.6112 22.3817 14.6112C22.7442 14.6112 22.8545 14.7373 23.8318 15.6883L25.0087 16.8599L25.2293 16.655L23.133 14.5219V14.5219Z" fill="url(#paint20_linear_6776_3)"></path><path d="M23.1277 3.39405C23.1277 3.39405 22.6864 2.92645 22.3764 2.92645C22.0664 2.92645 21.6251 3.39405 21.6251 3.39405L11.9841 13.2715L20.9263 4.56567C21.9088 3.60946 22.0349 3.48862 22.3764 3.48862C22.7179 3.48862 22.844 3.60946 23.8265 4.56567L32.7687 13.2662L23.1277 3.39405Z" fill="url(#paint21_linear_6776_3)"></path><path class="logo-text" d="M58.0349 5.13835H61.6917L64.9018 15.6357L68.3799 5.09632H71.3011L74.7792 15.6357L77.9894 5.13835H81.5568L76.2661 20.7478H73.2976L69.7985 10.6077L66.2994 20.7478H63.3309L58.0402 5.13835H58.0349Z" fill="currentColor"></path><path class="logo-text" d="M83.1436 5.13835H86.5534V20.6375H83.1436V5.13835Z" fill="currentColor"></path><path class="logo-text" d="M88.8335 18.3783L90.851 15.9667C92.2433 17.1173 93.7092 17.8476 95.4797 17.8476C96.8773 17.8476 97.7179 17.296 97.7179 16.387V16.345C97.7179 15.4834 97.1873 15.0368 94.5971 14.3748C91.4762 13.5762 89.4587 12.7145 89.4587 9.63572V9.59369C89.4587 6.78283 91.7179 4.92294 94.886 4.92294C97.1452 4.92294 99.0734 5.63222 100.644 6.89317L98.8738 9.46234C97.5025 8.51138 96.147 7.93345 94.844 7.93345C93.541 7.93345 92.8528 8.5324 92.8528 9.28371V9.32574C92.8528 10.345 93.5148 10.676 96.1943 11.3643C99.3414 12.1839 101.112 13.3135 101.112 16.014V16.056C101.112 19.1348 98.7634 20.8634 95.4219 20.8634C93.0734 20.8634 90.7039 20.0438 88.844 18.3835L88.8335 18.3783ZM96.52 0.220662L99.4202 1.48161L96.4097 3.69352H93.8405L96.52 0.215408V0.220662Z" fill="currentColor"></path><path class="logo-text" d="M103.676 5.13835H106.823L114.089 14.6848V5.13835H117.452V20.6375H114.551L107.044 10.7811V20.6375H103.676V5.13835V5.13835Z" fill="currentColor"></path><path class="logo-text" d="M120.919 5.13835H124.329V20.6375H120.919V5.13835Z" fill="currentColor"></path><path class="logo-text" d="M126.667 12.9352V12.8932C126.667 8.48511 130.145 4.87566 134.926 4.87566C139.708 4.87566 143.144 8.44308 143.144 12.8459V12.8879C143.144 17.296 139.665 20.9054 134.884 20.9054C130.103 20.9054 126.667 17.338 126.667 12.9352V12.9352ZM139.576 12.9352V12.8932C139.576 10.2347 137.627 8.02277 134.879 8.02277C132.131 8.02277 130.229 10.1926 130.229 12.8511V12.8932C130.229 15.5517 132.179 17.7636 134.926 17.7636C137.674 17.7636 139.576 15.5937 139.576 12.9352V12.9352Z" fill="currentColor"></path><path class="logo-text" d="M143.338 5.13835H146.995L150.205 15.6357L153.683 5.09632H156.604L160.082 15.6357L163.292 5.13835H166.86L161.569 20.7478H158.601L155.101 10.6077L151.602 20.7478H148.634L143.343 5.13835H143.338Z" fill="currentColor"></path><path class="logo-text" d="M166.965 18.3783L168.982 15.9667C170.375 17.1173 171.84 17.8476 173.611 17.8476C175.003 17.8476 175.849 17.296 175.849 16.387V16.345C175.849 15.4834 175.319 15.0368 172.728 14.3748C169.608 13.5762 167.59 12.7145 167.59 9.63572V9.59369C167.59 6.78283 169.849 4.92294 173.017 4.92294C175.277 4.92294 177.205 5.63222 178.776 6.89316L177.005 9.46234C175.634 8.51138 174.278 7.93344 172.975 7.93344C171.672 7.93344 170.984 8.53239 170.984 9.28371V9.32574C170.984 10.345 171.646 10.676 174.331 11.3643C177.473 12.1839 179.249 13.3135 179.249 16.014V16.056C179.249 19.1348 176.9 20.8634 173.559 20.8634C171.21 20.8634 168.84 20.0438 166.981 18.3835L166.965 18.3783Z" fill="currentColor"></path><path class="logo-text" d="M181.497 5.13835H184.907V11.9159L191.196 5.13835H195.315L189.005 11.7163L195.604 20.6427H191.506L186.699 14.0438L184.907 15.9037V20.6427H181.497V5.13835Z" fill="currentColor"></path><path class="logo-text" d="M196.981 5.13835H200.391V20.6375H196.981V5.13835Z" fill="currentColor"></path></g><defs><linearGradient id="paint0_linear_6776_3" x1="0.577881" y1="11.9737" x2="44.1803" y2="11.9737" gradientUnits="userSpaceOnUse"><stop stop-color="#B2B2B2"></stop><stop offset="0.3" stop-color="white"></stop><stop offset="0.7" stop-color="white"></stop><stop offset="1" stop-color="#B2B2B2"></stop></linearGradient><linearGradient id="paint1_linear_6776_3" x1="7.17691" y1="2.68477" x2="4.5552" y2="7.11384" gradientUnits="userSpaceOnUse"><stop stop-color="white"></stop><stop offset="0.18" stop-color="#C6C6C6"></stop><stop offset="0.52" stop-color="#1D1D1B"></stop><stop offset="0.9" stop-color="#706F6F"></stop></linearGradient><linearGradient id="paint2_linear_6776_3" x1="37.5814" y1="2.68477" x2="40.2032" y2="7.11384" gradientUnits="userSpaceOnUse"><stop stop-color="white"></stop><stop offset="0.18" stop-color="#C6C6C6"></stop><stop offset="0.52" stop-color="#1D1D1B"></stop><stop offset="0.9" stop-color="#706F6F"></stop></linearGradient><linearGradient id="paint3_linear_6776_3" x1="10.8968" y1="-0.373027" x2="6.80397" y2="5.89492" gradientUnits="userSpaceOnUse"><stop stop-color="#C6C6C6"></stop><stop offset="0.32" stop-color="#1D1D1B"></stop><stop offset="0.58" stop-color="#878787"></stop><stop offset="0.85" stop-color="#9D9D9C"></stop><stop offset="1" stop-color="#E3E3E3"></stop></linearGradient><linearGradient id="paint4_linear_6776_3" x1="33.8669" y1="-0.367774" x2="37.9597" y2="5.89492" gradientUnits="userSpaceOnUse"><stop stop-color="#C6C6C6"></stop><stop offset="0.32" stop-color="#1D1D1B"></stop><stop offset="0.58" stop-color="#878787"></stop><stop offset="0.85" stop-color="#9D9D9C"></stop><stop offset="1" stop-color="#E3E3E3"></stop></linearGradient><linearGradient id="paint5_linear_6776_3" x1="8.03865" y1="8.26445" x2="11.4432" y2="13.4186" gradientUnits="userSpaceOnUse"><stop stop-color="#E3E3E3"></stop><stop offset="0.31" stop-color="#DBDBDB"></stop><stop offset="0.76" stop-color="#C8C8C8"></stop><stop offset="0.8" stop-color="#C6C6C6"></stop></linearGradient><linearGradient id="paint6_linear_6776_3" x1="36.7199" y1="8.26445" x2="33.3153" y2="13.4186" gradientUnits="userSpaceOnUse"><stop stop-color="#E3E3E3"></stop><stop offset="0.31" stop-color="#DBDBDB"></stop><stop offset="0.76" stop-color="#C8C8C8"></stop><stop offset="0.8" stop-color="#C6C6C6"></stop></linearGradient><linearGradient id="paint7_linear_6776_3" x1="11.3066" y1="7.50263" x2="33.4152" y2="7.50263" gradientUnits="userSpaceOnUse"><stop stop-color="#C6C6C6"></stop><stop offset="0.15" stop-color="#9D9D9C"></stop><stop offset="0.4" stop-color="white"></stop><stop offset="0.6" stop-color="white"></stop><stop offset="0.85" stop-color="#9D9D9C"></stop><stop offset="0.9" stop-color="#B1B1B0"></stop><stop offset="0.96" stop-color="#C0C0C0"></stop><stop offset="1" stop-color="#C6C6C6"></stop></linearGradient><linearGradient id="paint8_linear_6776_3" x1="14.8896" y1="6.80385" x2="29.8686" y2="6.80385" gradientUnits="userSpaceOnUse"><stop stop-color="#666666"></stop><stop offset="0.5" stop-color="#1D1D1B"></stop><stop offset="1" stop-color="#666666"></stop></linearGradient><linearGradient id="paint9_linear_6776_3" x1="13.0508" y1="9.76707" x2="31.6655" y2="9.76707" gradientUnits="userSpaceOnUse"><stop stop-color="#C6C6C6"></stop><stop offset="0.1" stop-color="#706F6F"></stop><stop offset="0.35" stop-color="#878787"></stop><stop offset="0.65" stop-color="#878787"></stop><stop offset="0.9" stop-color="#706F6F"></stop><stop offset="1" stop-color="#C6C6C6"></stop></linearGradient><linearGradient id="paint10_linear_6776_3" x1="16.4606" y1="15.9457" x2="28.2767" y2="15.9457" gradientUnits="userSpaceOnUse"><stop offset="0.15" stop-color="#A8A8A7"></stop><stop offset="0.4" stop-color="white"></stop><stop offset="0.6" stop-color="white"></stop><stop offset="0.85" stop-color="#A8A8A7"></stop></linearGradient><linearGradient id="paint11_linear_6776_3" x1="7.01392" y1="16.8651" x2="37.7442" y2="16.8651" gradientUnits="userSpaceOnUse"><stop offset="0.15" stop-color="#706F6F"></stop><stop offset="0.23" stop-color="#1D1D1B"></stop><stop offset="0.29" stop-color="#9D9D9C"></stop><stop offset="0.34" stop-color="#706F6F"></stop><stop offset="0.5" stop-color="#1D1D1B"></stop><stop offset="0.65" stop-color="#706F6F"></stop><stop offset="0.71" stop-color="#9D9D9C"></stop><stop offset="0.77" stop-color="#1D1D1B"></stop><stop offset="0.85" stop-color="#706F6F"></stop></linearGradient><linearGradient id="paint12_linear_6776_3" x1="12.5883" y1="16.7443" x2="17.1382" y2="17.6637" gradientUnits="userSpaceOnUse"><stop stop-color="#C6C6C6"></stop><stop offset="0.75" stop-color="white"></stop><stop offset="1" stop-color="#A8A8A7"></stop></linearGradient><linearGradient id="paint13_linear_6776_3" x1="32.1699" y1="16.7443" x2="27.6252" y2="17.6637" gradientUnits="userSpaceOnUse"><stop stop-color="#C6C6C6"></stop><stop offset="0.75" stop-color="white"></stop><stop offset="1" stop-color="#A8A8A7"></stop></linearGradient><linearGradient id="paint14_linear_6776_3" x1="17.6638" y1="18.683" x2="27.0946" y2="18.683" gradientUnits="userSpaceOnUse"><stop stop-color="#706F6F"></stop><stop offset="0.45" stop-color="#878787"></stop><stop offset="0.55" stop-color="#878787"></stop><stop offset="1" stop-color="#706F6F"></stop></linearGradient><linearGradient id="paint15_linear_6776_3" x1="31.4815" y1="21.5622" x2="29.4745" y2="21.5622" gradientUnits="userSpaceOnUse"><stop offset="0.05" stop-color="currentColor"></stop><stop offset="0.35" stop-color="#575756"></stop><stop offset="1" stop-color="#9D9D9C"></stop></linearGradient><linearGradient id="paint16_linear_6776_3" x1="13.2768" y1="-4.37074e-06" x2="15.289" y2="-4.37074e-06" gradientUnits="userSpaceOnUse"><stop offset="0.05" stop-color="currentColor"></stop><stop offset="0.35" stop-color="#575756"></stop><stop offset="1" stop-color="#9D9D9C"></stop></linearGradient><linearGradient id="paint17_linear_6776_3" x1="1.79166" y1="1.60245" x2="7.60252" y2="4.75482" gradientUnits="userSpaceOnUse"><stop offset="0.2" stop-color="#1D1D1B"></stop><stop offset="1" stop-color="white"></stop></linearGradient><linearGradient id="paint18_linear_6776_3" x1="42.9666" y1="1.60771" x2="37.1558" y2="4.75482" gradientUnits="userSpaceOnUse"><stop offset="0.2" stop-color="#1D1D1B"></stop><stop offset="1" stop-color="white"></stop></linearGradient><linearGradient id="paint19_linear_6776_3" x1="22.3818" y1="16.9597" x2="22.3818" y2="21.9983" gradientUnits="userSpaceOnUse"><stop offset="0.19" stop-color="white"></stop><stop offset="0.95" stop-color="#9D9D9C"></stop></linearGradient><linearGradient id="paint20_linear_6776_3" x1="22.3817" y1="16.8651" x2="22.3817" y2="14.0701" gradientUnits="userSpaceOnUse"><stop stop-color="white"></stop><stop offset="0.67" stop-color="#EDEDED"></stop><stop offset="0.78" stop-color="#E5E5E5"></stop><stop offset="0.93" stop-color="#D2D2D2"></stop><stop offset="1" stop-color="#C6C6C6"></stop></linearGradient><linearGradient id="paint21_linear_6776_3" x1="22.3817" y1="13.282" x2="22.3817" y2="3.00525" gradientUnits="userSpaceOnUse"><stop stop-color="#C6C6C6"></stop><stop offset="0.5" stop-color="#EDEDED"></stop><stop offset="1" stop-color="#C6C6C6"></stop></linearGradient><clipPath id="clip0_6776_3"><rect width="200.391" height="24" fill="white"></rect></clipPath></defs></svg>